<svg width="24" height="24" viewBox="0 0 24 24" fill="none" xmlns="http://www.w3.org/2000/svg">
<g id="icon/navigation/first_page_24px">
<path id="icon/navigation/first_page_24px_2" d="M6.99805 5C7.54805 5 7.99805 5.45 7.99805 6V16C7.99805 16.55 7.54805 17 6.99805 17C6.44805 17 5.99805 16.55 5.99805 16V6C5.99805 5.45 6.44805 5 6.99805 5ZM17.0029 5.40723C17.2674 5.40723 17.5212 5.51294 17.708 5.7002C18.0979 6.0902 18.098 6.72038 17.708 7.11035L13.8184 11L17.6982 14.8896C18.0882 15.2696 18.088 15.91 17.708 16.29C17.318 16.68 16.6878 16.68 16.2979 16.29L11.708 11.7002C11.318 11.3102 11.318 10.68 11.708 10.29L16.2979 5.7002C16.4847 5.51297 16.7385 5.40726 17.0029 5.40723Z" fill="#424242"/>
</g>
</svg>
