<svg width="20" height="20" viewBox="0 0 20 20" fill="none" xmlns="http://www.w3.org/2000/svg">
<path d="M7.5 11.4587C9.44989 11.4587 13.3336 12.4333 13.334 14.3748V14.9998C13.334 15.4581 12.9583 15.8337 12.5 15.8337H2.5C2.04181 15.8336 1.66699 15.458 1.66699 14.9998V14.3748C1.66743 12.4334 5.55 11.4588 7.5 11.4587ZM13.3672 11.5085C15.417 11.7336 18.3336 12.6917 18.334 14.3748V14.9998C18.334 15.4581 17.9583 15.8337 17.5 15.8337H15V14.3748C14.9999 13.1417 14.3337 12.2085 13.3672 11.5085ZM7.5 13.1248C6.00851 13.1248 4.31722 13.6835 3.61719 14.1667H11.3838C10.6838 13.6834 8.99167 13.1248 7.5 13.1248ZM7.5 4.16675C9.10833 4.16675 10.417 5.47541 10.417 7.08374C10.4168 8.69192 9.10822 9.99976 7.5 9.99976C5.89192 9.99958 4.58416 8.69182 4.58398 7.08374C4.58398 5.47552 5.89182 4.16692 7.5 4.16675ZM12.5 4.16675C14.1083 4.16675 15.417 5.47541 15.417 7.08374C15.4168 8.69192 14.1082 9.99976 12.5 9.99976C12.0501 9.9997 11.6332 9.89203 11.25 9.70874C11.7749 8.96716 12.0839 8.05862 12.084 7.08374C12.084 6.10877 11.775 5.2004 11.25 4.45874C11.6332 4.27545 12.0501 4.1668 12.5 4.16675ZM7.5 5.83374C6.80848 5.83392 6.25 6.39218 6.25 7.08374C6.25017 7.77515 6.80859 8.33357 7.5 8.33374C8.19156 8.33374 8.74983 7.77526 8.75 7.08374C8.75 6.39207 8.19167 5.83374 7.5 5.83374Z" fill="#040E1A"/>
</svg>
