<svg width="20" height="20" viewBox="0 0 20 20" fill="none" xmlns="http://www.w3.org/2000/svg">
<path d="M6.33333 2.5H4.5C3.39543 2.5 2.5 3.39543 2.5 4.5V6.33333C2.5 7.4379 3.39543 8.33333 4.5 8.33333H6.33333C7.4379 8.33333 8.33333 7.4379 8.33333 6.33333V4.5C8.33333 3.39543 7.4379 2.5 6.33333 2.5Z" stroke="#1A1A1A" stroke-width="1.25" stroke-linecap="round" stroke-linejoin="round"/>
<path d="M15.5 2.5H13.6667C12.5621 2.5 11.6667 3.39543 11.6667 4.5V6.33333C11.6667 7.4379 12.5621 8.33333 13.6667 8.33333H15.5C16.6046 8.33333 17.5 7.4379 17.5 6.33333V4.5C17.5 3.39543 16.6046 2.5 15.5 2.5Z" stroke="#1A1A1A" stroke-width="1.25" stroke-linecap="round" stroke-linejoin="round"/>
<path d="M15.5 11.6667H13.6667C12.5621 11.6667 11.6667 12.5621 11.6667 13.6667V15.5C11.6667 16.6046 12.5621 17.5 13.6667 17.5H15.5C16.6046 17.5 17.5 16.6046 17.5 15.5V13.6667C17.5 12.5621 16.6046 11.6667 15.5 11.6667Z" stroke="#1A1A1A" stroke-width="1.25" stroke-linecap="round" stroke-linejoin="round"/>
<path d="M6.33333 11.6667H4.5C3.39543 11.6667 2.5 12.5621 2.5 13.6667V15.5C2.5 16.6046 3.39543 17.5 4.5 17.5H6.33333C7.4379 17.5 8.33333 16.6046 8.33333 15.5V13.6667C8.33333 12.5621 7.4379 11.6667 6.33333 11.6667Z" stroke="#1A1A1A" stroke-width="1.25" stroke-linecap="round" stroke-linejoin="round"/>
</svg>
