<svg width="20" height="20" viewBox="0 0 20 20" fill="none" xmlns="http://www.w3.org/2000/svg">
<path d="M11.6675 15.6245C11.6675 16.541 10.9179 17.2913 10.0015 17.2915C9.07646 17.2915 8.33447 16.5412 8.33447 15.6245H11.6675ZM10.0005 1.0415C10.6922 1.0415 11.2505 1.59984 11.2505 2.2915V2.85791C13.6337 3.42455 15.0004 5.56632 15.0005 8.12451V12.2915L16.0757 13.3667C16.6007 13.8917 16.2256 14.7915 15.4839 14.7915H4.50928C3.76762 14.7915 3.40127 13.8917 3.92627 13.3667L5.00049 12.2915V8.12451C5.0006 5.55813 6.35917 3.42469 8.75049 2.85791V2.2915C8.75049 1.6 9.30904 1.04176 10.0005 1.0415Z" fill="#040E1A"/>
</svg>
