<svg width="24" height="24" viewBox="0 0 24 24" fill="none" xmlns="http://www.w3.org/2000/svg">
<g id="icon/navigation/last_page_24px">
<path id="icon/navigation/last_page_24px_2" d="M17.002 5C17.552 5 18.002 5.45 18.002 6V16C18.002 16.55 17.552 17 17.002 17C16.452 17 16.002 16.55 16.002 16V6C16.002 5.45003 16.452 5.00004 17.002 5ZM6.99707 5.40723C7.26157 5.40724 7.51533 5.51295 7.70215 5.7002L12.292 10.2998C12.682 10.6898 12.682 11.32 12.292 11.71L7.70215 16.2998C7.31215 16.6898 6.68199 16.6898 6.29199 16.2998C5.90211 15.9098 5.90203 15.2796 6.29199 14.8896L10.1816 11L6.29199 7.11035C5.91203 6.73039 5.91211 6.09021 6.29199 5.7002C6.47882 5.51294 6.73255 5.40723 6.99707 5.40723Z" fill="#424242"/>
</g>
</svg>
