<svg width="20" height="20" viewBox="0 0 20 20" fill="none" xmlns="http://www.w3.org/2000/svg">
<path fill-rule="evenodd" clip-rule="evenodd" d="M11.6684 0.833496C11.8766 0.833496 12.0514 0.983308 12.0766 1.18311L12.393 3.39209C12.9013 3.60042 13.3688 3.87516 13.8022 4.2085L15.8764 3.37549C16.0596 3.30885 16.2851 3.37497 16.3852 3.55811L18.0522 6.44189C18.152 6.62519 18.1099 6.85015 17.9516 6.9751L16.1938 8.3501C16.2271 8.61666 16.2514 8.88329 16.2514 9.1665C16.2514 9.44984 16.2271 9.71722 16.1938 9.98389L17.9516 11.3589C18.1099 11.4839 18.1522 11.7088 18.0522 11.8921L16.3852 14.7749C16.2852 14.9582 16.0681 15.0335 15.8764 14.9585L13.8022 14.1255C13.3688 14.4505 12.9013 14.7336 12.393 14.9419L12.0766 17.1499C12.0516 17.3499 11.8767 17.5005 11.6684 17.5005H8.33538C8.12705 17.5005 7.95218 17.3499 7.92718 17.1499L7.6098 14.9419C7.10157 14.7336 6.63485 14.4588 6.2016 14.1255L4.1264 14.9585C3.94312 15.025 3.71853 14.9581 3.61859 14.7749L1.9516 11.8921C1.8516 11.7088 1.89385 11.4839 2.05218 11.3589L3.80999 9.98389C3.77666 9.71722 3.7514 9.4415 3.7514 9.1665C3.75142 8.89161 3.77667 8.61666 3.80999 8.3501L2.05218 6.9751C1.89388 6.85012 1.84335 6.62521 1.9516 6.44189L3.61859 3.55811C3.71864 3.3751 3.93491 3.30067 4.1264 3.37549L6.2016 4.2085C6.63483 3.88357 7.1016 3.60041 7.6098 3.39209L7.92718 1.18311C7.95238 0.983324 8.1272 0.833496 8.33538 0.833496H11.6684ZM10.0014 6.25049C8.39334 6.25068 7.08556 7.55844 7.08538 9.1665C7.08538 10.7747 8.39323 12.0833 10.0014 12.0835C11.6097 12.0835 12.9184 10.7748 12.9184 9.1665C12.9182 7.55832 11.6096 6.25049 10.0014 6.25049Z" fill="#040E1A"/>
</svg>
