<?xml version="1.0" encoding="UTF-8" standalone="no"?>
<svg
   width="157.60001mm"
   height="189.99998mm"
   viewBox="0 0 157.60001 189.99998"
   version="1.1"
   xmlns="http://www.w3.org/2000/svg">
  <!-- Safari pinned tab requires single color paths only, no backgrounds -->
  <path
     fill="#000000"
     d="m 68.835325,89.012278 c 1.411053,-4.358155 3.096168,-8.625727 4.681982,-12.923515 1.599626,-4.141217 3.087977,-8.33794 5.014028,-12.342487 0.195874,-0.758815 0.990691,-1.369493 1.361539,-0.343499 1.400129,2.494433 2.149674,5.2846 3.222965,7.924035 2.162426,5.848612 4.514255,11.629215 6.522355,17.533707 -0.171461,0.897085 -2.000274,0.416729 -2.841689,0.62882 -5.257609,0.156074 -10.523337,0.177586 -15.780305,-0.0085 -0.68655,-0.12506 -1.678557,0.0638 -2.180875,-0.468534 z" />
  <path
     fill="#000000"
     d="M 74.981847,187.32579 C 51.068404,176.15613 28.258884,159.99461 14.470526,137.03817 6.7520879,123.91739 3.7790056,108.55473 4.4931602,93.454134 4.4158787,73.885458 4.4633944,54.316534 4.4501568,34.747743 8.9767272,29.048105 17.193414,28.191119 23.335328,24.775379 41.997752,17.219557 60.33677,8.7082103 79.391998,2.212779 c 8.991517,2.2575104 17.259756,6.96342 25.976252,10.155002 15.45274,6.503986 31.04563,12.694404 46.3614,19.513316 4.79815,6.465964 1.44941,15.721958 2.55951,23.292639 -0.32721,18.915385 0.87052,37.936656 -1.16397,56.774504 -2.648,18.08062 -12.59138,34.29752 -26.08402,46.37592 -13.57294,12.91933 -29.635203,23.3133 -46.981864,30.36332 -1.788902,0.15608 -3.469331,-0.72422 -5.077459,-1.36169 z M 50.499961,136.33232 c 5.15826,-6.06605 4.319834,-16.43817 12.414607,-20.34464 4.625334,-5.64579 10.275516,-1.84486 13.569299,2.73925 5.601914,-5.19906 10.514714,-11.2948 16.846766,-15.58741 11.744857,-0.0757 3.29944,12.0982 -2.147865,15.50574 -4.924418,5.72398 -11.775573,10.43481 -15.433903,16.91417 7.531449,1.67494 15.716806,0.48115 23.48258,0.94284 9.333695,-0.29089 18.876245,0.83192 28.073005,-0.65674 1.3458,-6.82968 -4.8311,-14.06065 -6.43124,-20.97269 C 110.3346,89.009464 100.58509,62.809971 89.48872,37.182386 84.949299,32.705295 73.106678,33.297951 68.62738,37.271964 55.636005,69.479604 42.746508,101.73292 30.24255,134.13234 c 2.328306,5.12697 15.3092,1.4688 20.257411,2.19998 z" />
</svg>

