<svg width="20" height="20" viewBox="0 0 20 20" fill="none" xmlns="http://www.w3.org/2000/svg">
<path d="M16.666 8.65918C17.5826 8.65918 18.3328 9.44207 18.333 10.3984V17.3555C18.3329 18.3119 17.5826 19.0947 16.666 19.0947H3.33301C2.4164 19.0947 1.6661 18.3119 1.66602 17.3555V10.3984C1.66619 9.44207 2.41645 8.65918 3.33301 8.65918H16.666ZM8.33301 16.7119L12.6572 14.2598C12.9489 14.0945 12.9489 13.6594 12.6572 13.4941L8.33301 11.0332V16.7119ZM15.833 5.18164C16.2911 5.18183 16.6659 5.57271 16.666 6.05078C16.666 6.52893 16.2912 6.92071 15.833 6.9209H4.16602C3.70768 6.9209 3.33301 6.52904 3.33301 6.05078C3.3331 5.5726 3.70774 5.18164 4.16602 5.18164H15.833ZM14.166 1.70312C14.6242 1.70313 14.9988 2.0942 14.999 2.57227C14.999 3.05053 14.6243 3.44238 14.166 3.44238H5.83301C5.37467 3.44238 4.99902 3.05053 4.99902 2.57227C4.99925 2.0942 5.37481 1.70312 5.83301 1.70312H14.166Z" fill="#040E1A"/>
</svg>
