<svg width="20" height="20" viewBox="0 0 20 20" fill="none" xmlns="http://www.w3.org/2000/svg">
<path d="M15.3789 13.3223C15.3788 13.9305 15.045 14.4974 14.5117 14.7891L10.3457 17.0635C9.8457 17.3385 9.24512 17.3385 8.74512 17.0635L4.5791 14.7891C4.04586 14.4974 3.71203 13.9305 3.71191 13.3223V10.9805L8.74512 13.7305C9.24512 14.0055 9.8457 14.0055 10.3457 13.7305L15.3789 10.9805V13.3223ZM8.74512 2.93066C9.24512 2.664 9.8457 2.664 10.3457 2.93066L18.2783 7.25488C18.5449 7.40483 18.7118 7.68009 18.7119 7.98828V13.3301C18.7119 13.7884 18.3372 14.164 17.8789 14.1641C17.4206 14.1641 17.0449 13.7884 17.0449 13.3301V8.40527L10.3457 12.0635C9.8457 12.3385 9.24512 12.3385 8.74512 12.0635L1.7207 8.23047C1.1457 7.9138 1.1457 7.08034 1.7207 6.76367L8.74512 2.93066Z" fill="#040E1A"/>
</svg>
