<?xml version="1.0" encoding="UTF-8" standalone="no"?>
<!-- Created with Inkscape (http://www.inkscape.org/) -->

<svg
   width="420.19998mm"
   height="189.99998mm"
   viewBox="0 0 420.19998 189.99998"
   version="1.1"
   id="SVGRoot"
   sodipodi:docname="/var/folders/mc/vynpnnr95yl6p5dvbgb4rp780000gn/T/ink_ext_XXXXXX.svgA4CNG3"
   inkscape:export-filename="Akademy_logo_full.svg"
   inkscape:export-xdpi="1200"
   inkscape:export-ydpi="1200"
   xmlns:inkscape="http://www.inkscape.org/namespaces/inkscape"
   xmlns:sodipodi="http://sodipodi.sourceforge.net/DTD/sodipodi-0.dtd"
   xmlns="http://www.w3.org/2000/svg"
   xmlns:svg="http://www.w3.org/2000/svg">
  <sodipodi:namedview
     id="namedview746"
     pagecolor="#ffffff"
     bordercolor="#000000"
     borderopacity="0.25"
     inkscape:showpageshadow="2"
     inkscape:pageopacity="0.0"
     inkscape:pagecheckerboard="0"
     inkscape:deskcolor="#d1d1d1"
     inkscape:document-units="mm"
     showgrid="false"
     inkscape:zoom="0.25"
     inkscape:cx="793.5"
     inkscape:cy="561.0"
     inkscape:window-width="1309"
     inkscape:window-height="148"
     inkscape:window-x="224"
     inkscape:window-y="804"
     inkscape:window-maximized="0"
     inkscape:current-layer="layer1" />
  <defs
     id="defs741" />
  <g
     inkscape:label="Layer 1"
     inkscape:groupmode="layer"
     id="layer1"
     transform="translate(0,-50.000002)">
    <path
       style="fill:#000000;stroke-width:0.474962"
       d="M 74.981847,237.32579 C 56.862123,229.27984 38.151199,216.05498 26.099903,202.77611 14.528694,190.0262 8.1981574,177.36603 5.2929615,161.16507 4.5352924,156.93993 4.4504622,152.85868 4.4501568,120.60748 V 84.747745 L 5.4674233,83.321732 C 6.5336876,81.827045 7.1466365,81.546376 32.71048,70.847527 64.385914,57.590895 77.858506,52.212781 79.391998,52.212781 c 0.904188,0 2.579516,0.402977 3.722925,0.895518 1.143443,0.492558 8.811582,3.686618 17.040327,7.09791 38.27385,15.866789 50.64504,21.065962 51.5744,21.67489 0.55247,0.362004 1.35707,1.401119 1.78795,2.309159 0.70511,1.485902 0.78344,5.02578 0.78344,35.403992 0,36.45658 -0.14607,39.17102 -2.64112,49.07142 -3.81632,15.14345 -10.40645,25.90091 -23.83083,38.90049 -8.40818,8.14212 -16.66945,14.44327 -27.67384,21.10775 -6.124465,3.7091 -18.233785,9.74302 -20.095944,10.01357 -1.04867,0.15236 -2.611191,-0.26672 -5.077102,-1.36169 z M 50.499961,186.33232 c 1.020185,-0.39149 1.776701,-1.93095 4.238727,-8.62563 2.800854,-7.61603 2.891623,-7.75722 6.944198,-10.80317 6.921565,-5.20231 8.019844,-5.30287 12.018721,-1.10046 l 2.78226,2.92387 6.729663,-6.64424 c 8.663298,-8.55334 9.459039,-9.18034 11.634475,-9.16717 3.809672,0.0231 6.157365,4.42439 4.054882,7.60192 -0.427374,0.6459 -5.929697,6.3577 -12.227387,12.69294 -9.837314,9.89592 -11.376591,11.6356 -10.926635,12.34905 0.486229,0.77092 2.321174,0.83926 25.603035,0.95343 22.83094,0.11197 25.15757,0.0521 25.95255,-0.66733 0.48029,-0.43467 0.87326,-1.23655 0.87326,-1.78198 0,-0.54542 -5.00245,-13.4966 -11.11659,-28.7804 -6.11413,-15.28379 -14.77195,-36.97925 -19.239614,-48.21212 -5.886875,-14.801174 -8.456194,-20.71762 -9.333304,-21.492102 -1.150161,-1.015587 -1.597081,-1.068657 -8.998343,-1.068657 -7.559302,0 -9.848122,0.354556 -10.379922,1.607956 -4.218028,9.941485 -38.849369,97.273273 -38.867387,98.014113 -0.05751,2.36593 0.476508,2.49502 10.323764,2.49502 5.040643,0 9.510769,-0.13284 9.933647,-0.29504 z m 18.335364,-47.32004 c 0.01527,-0.32653 2.206178,-6.3645 4.868369,-13.41771 3.312551,-8.77622 5.0609,-12.82399 5.539037,-12.82399 0.446495,0 1.266922,1.54274 2.273228,4.27466 0.866032,2.35107 3.062997,8.17599 4.88218,12.94428 1.819149,4.76829 3.307563,8.88267 3.307563,9.14305 0,0.30025 -3.822346,0.47342 -10.449194,0.47342 -8.057645,0 -10.442781,-0.1359 -10.421183,-0.59371 z M 336.2116,214.47395 c 0,-0.0969 1.38927,-3.30624 3.08726,-7.13179 1.698,-3.82557 3.08726,-7.27152 3.08726,-7.65769 0,-0.38616 -0.98829,-2.89423 -2.19624,-5.57346 -3.54559,-7.86435 -13.00258,-29.98413 -13.00258,-30.41293 0,-0.21654 2.05031,-0.34472 4.55625,-0.28481 4.03449,0.0964 4.62526,0.22166 5.15891,1.09356 0.33146,0.54156 2.70116,6.38568 5.26604,12.98695 2.56484,6.60125 4.8158,11.83771 5.00211,11.6366 0.1863,-0.20114 1.95569,-4.53348 3.93195,-9.62748 1.97625,-5.09397 4.20613,-10.75792 4.95528,-12.58652 l 1.3621,-3.32474 4.65474,-0.13675 c 4.28061,-0.12572 4.63485,-0.0684 4.40731,0.71245 -0.20574,0.70618 -7.46951,17.86475 -19.10898,45.13943 l -2.28025,5.34334 h -4.44059 c -2.44231,0 -4.44057,-0.0794 -4.44057,-0.17623 z M 193.54407,200.0989 c -4.65002,-1.42795 -8.44393,-4.84304 -10.68138,-9.61484 -1.14305,-2.43778 -1.2516,-3.18423 -1.2516,-8.60632 0,-5.447 0.10502,-6.16122 1.27293,-8.65293 1.68452,-3.59403 5.10844,-7.17746 8.40467,-8.79621 2.37639,-1.16704 3.19599,-1.31193 7.42108,-1.31193 4.03596,0 5.09286,0.16898 7.03405,1.12476 1.25643,0.61862 2.91188,1.79416 3.67876,2.6123 l 1.39435,1.48753 0.002,-10.09296 0.002,-10.09297 h 4.27468 4.27466 v 26.12298 26.12298 h -4.3205 -4.3205 l 0.16457,-2.37511 c 0.0904,-1.3063 0.096,-2.37498 0.0119,-2.37482 -0.0838,0 -1.18273,0.8692 -2.44217,1.93117 -1.25944,1.06197 -3.3088,2.23752 -4.55411,2.6123 -2.86933,0.86353 -7.37763,0.82181 -10.3662,-0.0959 z m 11.37387,-7.47786 c 4.22807,-1.96879 6.37833,-5.68295 6.37833,-11.01727 0,-4.86533 -2.24024,-8.54247 -6.37833,-10.46936 -5.34152,-2.48725 -10.74605,-0.52301 -13.38136,4.86337 -1.11973,2.28864 -1.23579,2.98599 -1.04513,6.27969 0.34675,5.98976 2.40811,9.18655 6.97632,10.81906 2.56148,0.91536 4.76525,0.77472 7.45017,-0.47549 z m 33.40801,7.38032 c -5.66072,-1.86616 -9.52095,-5.79812 -11.39498,-11.60668 -1.51069,-4.68237 -1.15782,-10.88378 0.86112,-15.13352 1.94599,-4.09617 4.23059,-6.58006 7.8038,-8.48457 2.74039,-1.46062 3.42829,-1.61515 7.99175,-1.79531 5.63617,-0.22254 8.58139,0.55727 12.22498,3.2368 3.9787,2.92596 6.80377,8.87341 6.93688,14.60376 l 0.0802,3.45628 -14.01141,0.10587 -14.0114,0.10587 0.14896,1.38434 c 0.39069,3.63043 3.7874,7.3805 7.54118,8.32571 3.63626,0.91563 8.03169,-0.5053 10.22255,-3.30469 1.13608,-1.45165 1.15861,-1.4573 5.27472,-1.31933 l 4.13376,0.13861 -1.13673,2.12252 c -1.90874,3.564 -3.93597,5.57475 -7.28029,7.22115 -2.86093,1.40844 -3.64845,1.57589 -7.95251,1.69089 -3.63258,0.097 -5.41337,-0.0821 -7.43267,-0.7478 z m 15.71703,-21.86362 c 0,-1.11025 -1.57554,-4.67188 -2.50962,-5.67324 -4.11869,-4.41529 -12.25238,-3.69503 -15.23183,1.34879 -1.03174,1.7466 -1.75085,4.08762 -1.37201,4.46646 0.448,0.44799 19.11346,0.30929 19.11346,-0.14201 z m 135.83947,21.78858 c -1.14348,-1.14347 -1.16206,-1.38563 -0.21055,-2.74408 1.23513,-1.76342 4.48521,-0.95501 4.48521,1.11565 0,0.89295 -1.70758,2.57836 -2.6123,2.57836 -0.39184,0 -1.13991,-0.42748 -1.66236,-0.94993 z m 11.95399,-0.0692 c -3.8901,-1.92556 -5.88777,-6.72035 -4.93482,-11.84456 1.01991,-5.48436 4.24787,-8.50964 9.07973,-8.50964 6.09008,0 9.52249,3.93281 9.53421,10.92416 0.005,3.08161 -0.18294,3.89161 -1.3943,6.00365 -2.42429,4.22687 -7.69676,5.69743 -12.28482,3.42639 z m 6.59587,-3.74456 c 1.96928,-1.05393 3.15263,-5.07403 2.36003,-8.01757 -1.11223,-4.13045 -4.9484,-5.62811 -7.60679,-2.96973 -3.53421,3.53423 -1.67842,11.47633 2.6816,11.47633 0.90826,0 2.06258,-0.22006 2.56516,-0.48903 z M 269.2418,181.87776 v -18.52358 h 4.27466 4.27467 v 2.18757 2.18755 l 1.38153,-1.47891 c 2.15891,-2.31113 4.94867,-3.34868 9.03645,-3.36076 4.20902,-0.0119 6.73463,1.02002 9.2172,3.76794 l 1.64698,1.82302 1.58923,-1.6549 c 2.58321,-2.69 4.85418,-3.61455 9.45093,-3.84768 5.01098,-0.25413 8.13228,0.87441 10.69321,3.86629 2.91222,3.40227 3.20199,5.11037 3.41656,20.1393 l 0.19154,13.41771 h -4.31329 -4.31329 l -0.003,-11.51785 c -0.002,-6.8272 -0.21354,-12.29159 -0.52049,-13.41771 -0.97762,-3.58668 -3.96186,-5.72253 -7.44673,-5.32974 -2.46598,0.27796 -4.23778,1.46103 -5.56659,3.717 -0.8728,1.48179 -0.96242,2.62651 -1.10379,14.09848 l -0.15389,12.48578 -4.12079,-0.13674 -4.12061,-0.13675 -0.23749,-12.58652 c -0.20081,-10.64358 -0.36204,-12.81394 -1.0444,-14.05964 -1.24303,-2.2693 -3.06435,-3.23147 -6.16247,-3.25556 -3.27274,-0.0255 -4.89602,0.98801 -6.44833,4.02592 -1.02492,2.00586 -1.06865,2.58291 -1.06865,14.10236 v 12.01092 h -4.27466 -4.27468 z m 101.55101,16.86937 c 0.16355,-1.40124 0.82082,-2.18198 4.29804,-5.10575 5.20005,-4.37242 6.20863,-5.52207 6.22725,-7.09827 0.0382,-3.23269 -4.7517,-3.99966 -6.15952,-0.98627 -0.64076,1.3715 -0.92087,1.52598 -2.78389,1.53522 l -2.07147,0.0102 0.33035,-1.78111 c 0.71912,-3.87726 3.48925,-5.8119 8.3247,-5.81387 4.75373,-0.002 8.10229,4.38041 6.66794,8.72652 -0.5016,1.51983 -4.52596,5.75564 -7.14288,7.51817 -1.15551,0.77823 -1.06934,0.80041 3.206,0.82465 l 4.3934,0.0249 v 1.89984 1.89986 h -7.74151 -7.74154 z M 183.27346,138.89119 c 0,-0.32437 4.809,-13.79562 10.68666,-29.9361 5.87768,-16.140505 10.68669,-29.424466 10.68669,-29.51995 0,-0.09552 3.33528,-0.114691 7.41176,-0.04275 l 7.4118,0.130808 1.58794,4.274674 c 3.41691,9.198221 12.15754,32.856558 16.10952,43.603808 2.28665,6.2185 4.036,11.4279 3.88743,11.57646 -0.14863,0.14863 -2.99816,0.2972 -6.33239,0.33028 l -6.06225,0.0601 -1.78826,-4.98711 c -0.98353,-2.74292 -2.12966,-5.8955 -2.54692,-7.00572 l -0.75869,-2.01859 H 212.0854 200.60407 l -2.37205,7.0057 -2.37204,7.00572 -6.29326,0.0562 c -4.72574,0.0422 -6.29326,-0.0906 -6.29326,-0.53355 z m 36.57215,-24.42384 c 0,-0.57533 -7.04487,-20.875432 -7.56765,-21.806494 -0.38046,-0.677607 -0.4791,-0.688329 -0.70046,-0.07618 -3.52926,9.759554 -7.40365,22.031314 -7.02909,22.263984 0.7104,0.4413 15.2972,0.0777 15.2972,-0.38126 z m 28.22605,24.70326 c -0.1118,-0.10893 -0.20322,-13.62748 -0.20322,-30.04142 V 79.285669 h 6.17454 6.17451 v 13.882149 13.882152 l 1.35868,-1.65185 c 0.74727,-0.90851 5.15976,-6.567719 9.80552,-12.576002 4.64577,-6.008284 8.99021,-11.511909 9.65433,-12.230302 l 1.20751,-1.306147 h 7.03558 c 3.86958,0 7.03559,0.104341 7.03559,0.232061 0,0.127585 -0.31297,0.608521 -0.69547,1.068674 -0.3825,0.460136 -3.96805,5.0044 -7.96788,10.098384 -3.99983,5.093984 -8.83723,11.244322 -10.74976,13.667432 -2.07583,2.62995 -3.37046,4.68427 -3.21208,5.09699 0.14591,0.38022 5.04675,6.73331 10.89077,14.11791 9.42444,11.90893 12.09866,15.49361 11.63239,15.5927 -1.19297,0.25352 -14.04472,0.31989 -14.39433,0.0743 -0.4846,-0.34038 -18.01485,-22.2028 -20.20495,-25.19812 l -1.15841,-1.58433 -0.23749,13.45839 -0.23749,13.45841 h -5.85257 c -3.21891,0 -5.94401,-0.0891 -6.05577,-0.19791 z m 49.50004,0.057 c -0.10808,-0.18376 4.18214,-12.30319 9.53394,-26.93205 5.3518,-14.628859 10.22587,-27.987202 10.83122,-29.685196 l 1.10069,-3.087255 h 7.24963 7.24964 l 6.7933,18.523563 c 3.73633,10.187948 8.62901,23.512298 10.87265,29.609608 2.24364,6.09734 3.97805,11.18737 3.85421,11.31119 -0.12385,0.12385 -2.9029,0.30544 -6.17575,0.40361 -4.22394,0.12673 -6.07978,0.0136 -6.39569,-0.38703 -0.24479,-0.31104 -1.46663,-3.50807 -2.71521,-7.10455 l -2.27014,-6.53903 -11.44972,0.12708 -11.44969,0.12707 -2.37482,6.85888 -2.37482,6.85887 -6.04141,0.12471 c -3.32278,0.0685 -6.12989,-0.0256 -6.23803,-0.2094 z m 36.21215,-24.60709 c 0.22537,-0.19652 -7.07535,-21.64206 -7.5525,-22.185058 -0.18685,-0.212635 -0.70849,0.749169 -1.1592,2.137347 -0.45071,1.388161 -2.18966,6.509391 -3.86432,11.380511 -1.67465,4.8711 -3.04483,8.96536 -3.04483,9.09832 0,0.25989 15.31303,-0.1627 15.62085,-0.43112 z"
       id="path571" />
  </g>
</svg>
