<svg width="18" height="18" viewBox="0 0 18 18" fill="none" xmlns="http://www.w3.org/2000/svg">
<path d="M12 4.5C12.825 4.5 13.5 5.175 13.5 6V13.5C13.5 14.325 12.825 15 12 15H6C5.175 15 4.5 14.325 4.5 13.5V6C4.5 5.175 5.175 4.5 6 4.5H12ZM10.5674 1.5C10.7624 1.5 10.9578 1.58277 11.0928 1.71777L11.625 2.25H13.5C13.9125 2.25 14.25 2.5875 14.25 3C14.25 3.4125 13.9125 3.75 13.5 3.75H4.5C4.0875 3.75 3.75 3.4125 3.75 3C3.75 2.5875 4.0875 2.25 4.5 2.25H6.375L6.90723 1.71777C7.04223 1.58277 7.23762 1.5 7.43262 1.5H10.5674Z" fill="#424242"/>
</svg>
