<svg width="24" height="24" viewBox="0 0 24 24" fill="none" xmlns="http://www.w3.org/2000/svg">
<path d="M4.33984 4.16699C6.97984 2.35699 10.24 3.20759 12 5.26758C13.7599 3.20764 17.0202 2.3672 19.6602 4.16699C21.0601 5.12696 21.94 6.74732 22 8.44727C22.13 12.3273 18.7002 15.4373 13.4502 20.1973L13.3398 20.2979C12.5799 20.9974 11.4103 20.9973 10.6504 20.3076L10.5498 20.2178C5.29983 15.4478 1.86 12.337 2 8.45703C2.06011 6.74719 2.93998 5.12693 4.33984 4.16699ZM16.5 5.17773C14.9602 5.17783 13.4605 6.16735 12.9404 7.53711H11.0703C10.5402 6.16723 9.03991 5.17773 7.5 5.17773C5.50011 5.17784 4 6.67781 4 8.67773C4.00023 11.5676 7.14057 14.4177 11.9004 18.7275L12 18.8271L12.1006 18.7275C16.8603 14.4178 19.9998 11.5676 20 8.67773C20 6.67773 18.5 5.17773 16.5 5.17773Z" fill="#4A90E2"/>
</svg>
