<svg width="16" height="16" viewBox="0 0 16 16" fill="none" xmlns="http://www.w3.org/2000/svg">
<path d="M12.999 3.3335C13.7324 3.3335 14.333 3.93317 14.333 4.6665V13.9995C14.333 14.7328 13.7324 15.3335 12.999 15.3335H5.66602C4.93268 15.3335 4.33301 14.7328 4.33301 13.9995V4.6665C4.33301 3.93317 4.93268 3.3335 5.66602 3.3335H12.999ZM6.33301 4.6665C5.96634 4.6665 5.66602 4.96683 5.66602 5.3335V13.3335C5.66619 13.7 5.96645 13.9995 6.33301 13.9995H12.333C12.6994 13.9993 12.9988 13.6999 12.999 13.3335V5.3335C12.999 4.96694 12.6995 4.66668 12.333 4.6665H6.33301ZM10.333 0.666504C10.6995 0.666682 10.999 0.966938 10.999 1.3335C10.9988 1.69991 10.6994 1.99933 10.333 1.99951H3.66602C3.29935 1.99951 2.99902 2.29984 2.99902 2.6665V10.6665C2.99902 11.0331 2.69953 11.3333 2.33301 11.3335C1.96634 11.3335 1.66602 11.0332 1.66602 10.6665V1.99951C1.66619 1.26643 2.26595 0.666681 2.99902 0.666504H10.333Z" fill="#929292"/>
</svg>
