<svg width="218" height="218" viewBox="0 0 218 218" fill="none" xmlns="http://www.w3.org/2000/svg">
<path d="M74.1198 0C76.5278 0 78.4798 1.95206 78.4798 4.36C78.4798 6.76806 76.5278 8.72 74.1198 8.72C71.7118 8.72 69.7598 6.76806 69.7598 4.36C69.7598 1.95206 71.7118 0 74.1198 0Z" fill="#0F0F0F"/>
<path d="M91.5602 0C93.9683 0 95.9202 1.95206 95.9202 4.36C95.9202 6.76806 93.9683 8.72 91.5602 8.72C89.1523 8.72 87.2002 6.76806 87.2002 4.36C87.2002 1.95206 89.1523 0 91.5602 0Z" fill="#0F0F0F"/>
<path d="M126.44 0C128.848 0 130.8 1.95206 130.8 4.36C130.8 6.76806 128.848 8.72 126.44 8.72C124.032 8.72 122.08 6.76806 122.08 4.36C122.08 1.95206 124.032 0 126.44 0Z" fill="#0F0F0F"/>
<path d="M82.84 8.71997C85.2481 8.71997 87.2 10.672 87.2 13.08C87.2 15.488 85.2481 17.44 82.84 17.44C80.432 17.44 78.48 15.488 78.48 13.08C78.48 10.672 80.432 8.71997 82.84 8.71997Z" fill="#0F0F0F"/>
<path d="M91.5602 8.71997C93.9683 8.71997 95.9202 10.672 95.9202 13.08C95.9202 15.488 93.9683 17.44 91.5602 17.44C89.1523 17.44 87.2002 15.488 87.2002 13.08C87.2002 10.672 89.1523 8.71997 91.5602 8.71997Z" fill="#0F0F0F"/>
<path d="M100.28 8.71997C102.688 8.71997 104.64 10.672 104.64 13.08C104.64 15.488 102.688 17.44 100.28 17.44C97.8725 17.44 95.9204 15.488 95.9204 13.08C95.9204 10.672 97.8725 8.71997 100.28 8.71997Z" fill="#0F0F0F"/>
<path d="M109 8.71997C111.408 8.71997 113.36 10.672 113.36 13.08C113.36 15.488 111.408 17.44 109 17.44C106.592 17.44 104.64 15.488 104.64 13.08C104.64 10.672 106.592 8.71997 109 8.71997Z" fill="#0F0F0F"/>
<path d="M126.44 8.71997C128.848 8.71997 130.8 10.672 130.8 13.08C130.8 15.488 128.848 17.44 126.44 17.44C124.032 17.44 122.08 15.488 122.08 13.08C122.08 10.672 124.032 8.71997 126.44 8.71997Z" fill="#0F0F0F"/>
<path d="M143.881 8.71997C146.289 8.71997 148.241 10.672 148.241 13.08C148.241 15.488 146.289 17.44 143.881 17.44C141.473 17.44 139.521 15.488 139.521 13.08C139.521 10.672 141.473 8.71997 143.881 8.71997Z" fill="#0F0F0F"/>
<path d="M74.1198 17.44C76.5278 17.44 78.4798 19.3921 78.4798 21.8C78.4798 24.2081 76.5278 26.16 74.1198 26.16C71.7118 26.16 69.7598 24.2081 69.7598 21.8C69.7598 19.3921 71.7118 17.44 74.1198 17.44Z" fill="#0F0F0F"/>
<path d="M91.5602 17.44C93.9683 17.44 95.9202 19.3921 95.9202 21.8C95.9202 24.2081 93.9683 26.16 91.5602 26.16C89.1523 26.16 87.2002 24.2081 87.2002 21.8C87.2002 19.3921 89.1523 17.44 91.5602 17.44Z" fill="#0F0F0F"/>
<path d="M100.28 17.44C102.688 17.44 104.64 19.3921 104.64 21.8C104.64 24.2081 102.688 26.16 100.28 26.16C97.8725 26.16 95.9204 24.2081 95.9204 21.8C95.9204 19.3921 97.8725 17.44 100.28 17.44Z" fill="#0F0F0F"/>
<path d="M117.72 17.44C120.128 17.44 122.08 19.3921 122.08 21.8C122.08 24.2081 120.128 26.16 117.72 26.16C115.312 26.16 113.36 24.2081 113.36 21.8C113.36 19.3921 115.312 17.44 117.72 17.44Z" fill="#0F0F0F"/>
<path d="M91.5602 26.16C93.9683 26.16 95.9202 28.112 95.9202 30.52C95.9202 32.928 93.9683 34.88 91.5602 34.88C89.1523 34.88 87.2002 32.928 87.2002 30.52C87.2002 28.112 89.1523 26.16 91.5602 26.16Z" fill="#0F0F0F"/>
<path d="M100.28 26.16C102.688 26.16 104.64 28.112 104.64 30.52C104.64 32.928 102.688 34.88 100.28 34.88C97.8725 34.88 95.9204 32.928 95.9204 30.52C95.9204 28.112 97.8725 26.16 100.28 26.16Z" fill="#0F0F0F"/>
<path d="M117.72 26.16C120.128 26.16 122.08 28.112 122.08 30.52C122.08 32.928 120.128 34.88 117.72 34.88C115.312 34.88 113.36 32.928 113.36 30.52C113.36 28.112 115.312 26.16 117.72 26.16Z" fill="#0F0F0F"/>
<path d="M135.16 26.16C137.568 26.16 139.52 28.112 139.52 30.52C139.52 32.928 137.568 34.88 135.16 34.88C132.752 34.88 130.8 32.928 130.8 30.52C130.8 28.112 132.752 26.16 135.16 26.16Z" fill="#0F0F0F"/>
<path d="M91.5602 34.88C93.9683 34.88 95.9202 36.8321 95.9202 39.24C95.9202 41.6481 93.9683 43.6 91.5602 43.6C89.1523 43.6 87.2002 41.6481 87.2002 39.24C87.2002 36.8321 89.1523 34.88 91.5602 34.88Z" fill="#0F0F0F"/>
<path d="M126.44 34.88C128.848 34.88 130.8 36.8321 130.8 39.24C130.8 41.6481 128.848 43.6 126.44 43.6C124.032 43.6 122.08 41.6481 122.08 39.24C122.08 36.8321 124.032 34.88 126.44 34.88Z" fill="#0F0F0F"/>
<path d="M74.1198 43.6C76.5278 43.6 78.4798 45.552 78.4798 47.96C78.4798 50.368 76.5278 52.32 74.1198 52.32C71.7118 52.32 69.7598 50.368 69.7598 47.96C69.7598 45.552 71.7118 43.6 74.1198 43.6Z" fill="#0F0F0F"/>
<path d="M82.84 43.6C85.2481 43.6 87.2 45.552 87.2 47.96C87.2 50.368 85.2481 52.32 82.84 52.32C80.432 52.32 78.48 50.368 78.48 47.96C78.48 45.552 80.432 43.6 82.84 43.6Z" fill="#0F0F0F"/>
<path d="M100.28 43.6C102.688 43.6 104.64 45.552 104.64 47.96C104.64 50.368 102.688 52.32 100.28 52.32C97.8725 52.32 95.9204 50.368 95.9204 47.96C95.9204 45.552 97.8725 43.6 100.28 43.6Z" fill="#0F0F0F"/>
<path d="M117.72 43.6C120.128 43.6 122.08 45.552 122.08 47.96C122.08 50.368 120.128 52.32 117.72 52.32C115.312 52.32 113.36 50.368 113.36 47.96C113.36 45.552 115.312 43.6 117.72 43.6Z" fill="#0F0F0F"/>
<path d="M126.44 43.6C128.848 43.6 130.8 45.552 130.8 47.96C130.8 50.368 128.848 52.32 126.44 52.32C124.032 52.32 122.08 50.368 122.08 47.96C122.08 45.552 124.032 43.6 126.44 43.6Z" fill="#0F0F0F"/>
<path d="M143.881 43.6C146.289 43.6 148.241 45.552 148.241 47.96C148.241 50.368 146.289 52.32 143.881 52.32C141.473 52.32 139.521 50.368 139.521 47.96C139.521 45.552 141.473 43.6 143.881 43.6Z" fill="#0F0F0F"/>
<path d="M74.1198 52.32C76.5278 52.32 78.4798 54.2721 78.4798 56.68C78.4798 59.0881 76.5278 61.04 74.1198 61.04C71.7118 61.04 69.7598 59.0881 69.7598 56.68C69.7598 54.2721 71.7118 52.32 74.1198 52.32Z" fill="#0F0F0F"/>
<path d="M91.5602 52.32C93.9683 52.32 95.9202 54.2721 95.9202 56.68C95.9202 59.0881 93.9683 61.04 91.5602 61.04C89.1523 61.04 87.2002 59.0881 87.2002 56.68C87.2002 54.2721 89.1523 52.32 91.5602 52.32Z" fill="#0F0F0F"/>
<path d="M109 52.32C111.408 52.32 113.36 54.2721 113.36 56.68C113.36 59.0881 111.408 61.04 109 61.04C106.592 61.04 104.64 59.0881 104.64 56.68C104.64 54.2721 106.592 52.32 109 52.32Z" fill="#0F0F0F"/>
<path d="M126.44 52.32C128.848 52.32 130.8 54.2721 130.8 56.68C130.8 59.0881 128.848 61.04 126.44 61.04C124.032 61.04 122.08 59.0881 122.08 56.68C122.08 54.2721 124.032 52.32 126.44 52.32Z" fill="#0F0F0F"/>
<path d="M143.881 52.32C146.289 52.32 148.241 54.2721 148.241 56.68C148.241 59.0881 146.289 61.04 143.881 61.04C141.473 61.04 139.521 59.0881 139.521 56.68C139.521 54.2721 141.473 52.32 143.881 52.32Z" fill="#0F0F0F"/>
<path d="M82.84 61.04C85.2481 61.04 87.2 62.992 87.2 65.4C87.2 67.808 85.2481 69.76 82.84 69.76C80.432 69.76 78.48 67.808 78.48 65.4C78.48 62.992 80.432 61.04 82.84 61.04Z" fill="#0F0F0F"/>
<path d="M91.5602 61.04C93.9683 61.04 95.9202 62.992 95.9202 65.4C95.9202 67.808 93.9683 69.76 91.5602 69.76C89.1523 69.76 87.2002 67.808 87.2002 65.4C87.2002 62.992 89.1523 61.04 91.5602 61.04Z" fill="#0F0F0F"/>
<path d="M109 61.04C111.408 61.04 113.36 62.992 113.36 65.4C113.36 67.808 111.408 69.76 109 69.76C106.592 69.76 104.64 67.808 104.64 65.4C104.64 62.992 106.592 61.04 109 61.04Z" fill="#0F0F0F"/>
<path d="M126.44 61.04C128.848 61.04 130.8 62.992 130.8 65.4C130.8 67.808 128.848 69.76 126.44 69.76C124.032 69.76 122.08 67.808 122.08 65.4C122.08 62.992 124.032 61.04 126.44 61.04Z" fill="#0F0F0F"/>
<path d="M135.16 61.04C137.568 61.04 139.52 62.992 139.52 65.4C139.52 67.808 137.568 69.76 135.16 69.76C132.752 69.76 130.8 67.808 130.8 65.4C130.8 62.992 132.752 61.04 135.16 61.04Z" fill="#0F0F0F"/>
<path d="M4.36001 69.7599C6.76807 69.7599 8.72001 71.712 8.72001 74.1199C8.72001 76.528 6.76807 78.4799 4.36001 78.4799C1.95206 78.4799 0 76.528 0 74.1199C0 71.712 1.95206 69.7599 4.36001 69.7599Z" fill="#0F0F0F"/>
<path d="M21.7999 69.7599C24.208 69.7599 26.16 71.712 26.16 74.1199C26.16 76.528 24.208 78.4799 21.7999 78.4799C19.392 78.4799 17.4399 76.528 17.4399 74.1199C17.4399 71.712 19.392 69.7599 21.7999 69.7599Z" fill="#0F0F0F"/>
<path d="M56.6803 69.7599C59.0884 69.7599 61.0403 71.712 61.0403 74.1199C61.0403 76.528 59.0884 78.4799 56.6803 78.4799C54.2724 78.4799 52.3203 76.528 52.3203 74.1199C52.3203 71.712 54.2724 69.7599 56.6803 69.7599Z" fill="#0F0F0F"/>
<path d="M65.4 69.7599C67.8081 69.7599 69.7601 71.712 69.7601 74.1199C69.7601 76.528 67.8081 78.4799 65.4 78.4799C62.9921 78.4799 61.04 76.528 61.04 74.1199C61.04 71.712 62.9921 69.7599 65.4 69.7599Z" fill="#0F0F0F"/>
<path d="M82.84 69.7599C85.2481 69.7599 87.2 71.712 87.2 74.1199C87.2 76.528 85.2481 78.4799 82.84 78.4799C80.432 78.4799 78.48 76.528 78.48 74.1199C78.48 71.712 80.432 69.7599 82.84 69.7599Z" fill="#0F0F0F"/>
<path d="M91.5602 69.7599C93.9683 69.7599 95.9202 71.712 95.9202 74.1199C95.9202 76.528 93.9683 78.4799 91.5602 78.4799C89.1523 78.4799 87.2002 76.528 87.2002 74.1199C87.2002 71.712 89.1523 69.7599 91.5602 69.7599Z" fill="#0F0F0F"/>
<path d="M109 69.7599C111.408 69.7599 113.36 71.712 113.36 74.1199C113.36 76.528 111.408 78.4799 109 78.4799C106.592 78.4799 104.64 76.528 104.64 74.1199C104.64 71.712 106.592 69.7599 109 69.7599Z" fill="#0F0F0F"/>
<path d="M135.16 69.7599C137.568 69.7599 139.52 71.712 139.52 74.1199C139.52 76.528 137.568 78.4799 135.16 78.4799C132.752 78.4799 130.8 76.528 130.8 74.1199C130.8 71.712 132.752 69.7599 135.16 69.7599Z" fill="#0F0F0F"/>
<path d="M143.881 69.7599C146.289 69.7599 148.241 71.712 148.241 74.1199C148.241 76.528 146.289 78.4799 143.881 78.4799C141.473 78.4799 139.521 76.528 139.521 74.1199C139.521 71.712 141.473 69.7599 143.881 69.7599Z" fill="#0F0F0F"/>
<path d="M170.04 69.7599C172.448 69.7599 174.4 71.712 174.4 74.1199C174.4 76.528 172.448 78.4799 170.04 78.4799C167.632 78.4799 165.68 76.528 165.68 74.1199C165.68 71.712 167.632 69.7599 170.04 69.7599Z" fill="#0F0F0F"/>
<path d="M196.2 69.7599C198.608 69.7599 200.56 71.712 200.56 74.1199C200.56 76.528 198.608 78.4799 196.2 78.4799C193.792 78.4799 191.84 76.528 191.84 74.1199C191.84 71.712 193.792 69.7599 196.2 69.7599Z" fill="#0F0F0F"/>
<path d="M213.64 69.7599C216.048 69.7599 218 71.712 218 74.1199C218 76.528 216.048 78.4799 213.64 78.4799C211.232 78.4799 209.28 76.528 209.28 74.1199C209.28 71.712 211.232 69.7599 213.64 69.7599Z" fill="#0F0F0F"/>
<path d="M4.36001 78.48C6.76807 78.48 8.72001 80.432 8.72001 82.84C8.72001 85.248 6.76807 87.2 4.36001 87.2C1.95206 87.2 0 85.248 0 82.84C0 80.432 1.95206 78.48 4.36001 78.48Z" fill="#0F0F0F"/>
<path d="M30.5202 78.48C32.9282 78.48 34.8802 80.432 34.8802 82.84C34.8802 85.248 32.9282 87.2 30.5202 87.2C28.1122 87.2 26.1602 85.248 26.1602 82.84C26.1602 80.432 28.1122 78.48 30.5202 78.48Z" fill="#0F0F0F"/>
<path d="M39.2399 78.48C41.648 78.48 43.5999 80.432 43.5999 82.84C43.5999 85.248 41.648 87.2 39.2399 87.2C36.8319 87.2 34.8799 85.248 34.8799 82.84C34.8799 80.432 36.8319 78.48 39.2399 78.48Z" fill="#0F0F0F"/>
<path d="M74.1198 78.48C76.5278 78.48 78.4798 80.432 78.4798 82.84C78.4798 85.248 76.5278 87.2 74.1198 87.2C71.7118 87.2 69.7598 85.248 69.7598 82.84C69.7598 80.432 71.7118 78.48 74.1198 78.48Z" fill="#0F0F0F"/>
<path d="M82.84 78.48C85.2481 78.48 87.2 80.432 87.2 82.84C87.2 85.248 85.2481 87.2 82.84 87.2C80.432 87.2 78.48 85.248 78.48 82.84C78.48 80.432 80.432 78.48 82.84 78.48Z" fill="#0F0F0F"/>
<path d="M100.28 78.48C102.688 78.48 104.64 80.432 104.64 82.84C104.64 85.248 102.688 87.2 100.28 87.2C97.8725 87.2 95.9204 85.248 95.9204 82.84C95.9204 80.432 97.8725 78.48 100.28 78.48Z" fill="#0F0F0F"/>
<path d="M109 78.48C111.408 78.48 113.36 80.432 113.36 82.84C113.36 85.248 111.408 87.2 109 87.2C106.592 87.2 104.64 85.248 104.64 82.84C104.64 80.432 106.592 78.48 109 78.48Z" fill="#0F0F0F"/>
<path d="M117.72 78.48C120.128 78.48 122.08 80.432 122.08 82.84C122.08 85.248 120.128 87.2 117.72 87.2C115.312 87.2 113.36 85.248 113.36 82.84C113.36 80.432 115.312 78.48 117.72 78.48Z" fill="#0F0F0F"/>
<path d="M135.16 78.48C137.568 78.48 139.52 80.432 139.52 82.84C139.52 85.248 137.568 87.2 135.16 87.2C132.752 87.2 130.8 85.248 130.8 82.84C130.8 80.432 132.752 78.48 135.16 78.48Z" fill="#0F0F0F"/>
<path d="M143.881 78.48C146.289 78.48 148.241 80.432 148.241 82.84C148.241 85.248 146.289 87.2 143.881 87.2C141.473 87.2 139.521 85.248 139.521 82.84C139.521 80.432 141.473 78.48 143.881 78.48Z" fill="#0F0F0F"/>
<path d="M152.6 78.48C155.008 78.48 156.96 80.432 156.96 82.84C156.96 85.248 155.008 87.2 152.6 87.2C150.192 87.2 148.24 85.248 148.24 82.84C148.24 80.432 150.192 78.48 152.6 78.48Z" fill="#0F0F0F"/>
<path d="M161.32 78.48C163.728 78.48 165.68 80.432 165.68 82.84C165.68 85.248 163.728 87.2 161.32 87.2C158.912 87.2 156.96 85.248 156.96 82.84C156.96 80.432 158.912 78.48 161.32 78.48Z" fill="#0F0F0F"/>
<path d="M170.04 78.48C172.448 78.48 174.4 80.432 174.4 82.84C174.4 85.248 172.448 87.2 170.04 87.2C167.632 87.2 165.68 85.248 165.68 82.84C165.68 80.432 167.632 78.48 170.04 78.48Z" fill="#0F0F0F"/>
<path d="M187.481 78.48C189.889 78.48 191.841 80.432 191.841 82.84C191.841 85.248 189.889 87.2 187.481 87.2C185.073 87.2 183.121 85.248 183.121 82.84C183.121 80.432 185.073 78.48 187.481 78.48Z" fill="#0F0F0F"/>
<path d="M204.92 78.48C207.328 78.48 209.28 80.432 209.28 82.84C209.28 85.248 207.328 87.2 204.92 87.2C202.512 87.2 200.56 85.248 200.56 82.84C200.56 80.432 202.512 78.48 204.92 78.48Z" fill="#0F0F0F"/>
<path d="M213.64 78.48C216.048 78.48 218 80.432 218 82.84C218 85.248 216.048 87.2 213.64 87.2C211.232 87.2 209.28 85.248 209.28 82.84C209.28 80.432 211.232 78.48 213.64 78.48Z" fill="#0F0F0F"/>
<path d="M47.9601 87.2C50.3682 87.2 52.3201 89.152 52.3201 91.56C52.3201 93.968 50.3682 95.9199 47.9601 95.9199C45.5522 95.9199 43.6001 93.968 43.6001 91.56C43.6001 89.152 45.5522 87.2 47.9601 87.2Z" fill="#0F0F0F"/>
<path d="M56.6803 87.2C59.0884 87.2 61.0403 89.152 61.0403 91.56C61.0403 93.968 59.0884 95.9199 56.6803 95.9199C54.2724 95.9199 52.3203 93.968 52.3203 91.56C52.3203 89.152 54.2724 87.2 56.6803 87.2Z" fill="#0F0F0F"/>
<path d="M100.28 87.2C102.688 87.2 104.64 89.152 104.64 91.56C104.64 93.968 102.688 95.9199 100.28 95.9199C97.8725 95.9199 95.9204 93.968 95.9204 91.56C95.9204 89.152 97.8725 87.2 100.28 87.2Z" fill="#0F0F0F"/>
<path d="M117.72 87.2C120.128 87.2 122.08 89.152 122.08 91.56C122.08 93.968 120.128 95.9199 117.72 95.9199C115.312 95.9199 113.36 93.968 113.36 91.56C113.36 89.152 115.312 87.2 117.72 87.2Z" fill="#0F0F0F"/>
<path d="M135.16 87.2C137.568 87.2 139.52 89.152 139.52 91.56C139.52 93.968 137.568 95.9199 135.16 95.9199C132.752 95.9199 130.8 93.968 130.8 91.56C130.8 89.152 132.752 87.2 135.16 87.2Z" fill="#0F0F0F"/>
<path d="M143.881 87.2C146.289 87.2 148.241 89.152 148.241 91.56C148.241 93.968 146.289 95.9199 143.881 95.9199C141.473 95.9199 139.521 93.968 139.521 91.56C139.521 89.152 141.473 87.2 143.881 87.2Z" fill="#0F0F0F"/>
<path d="M161.32 87.2C163.728 87.2 165.68 89.152 165.68 91.56C165.68 93.968 163.728 95.9199 161.32 95.9199C158.912 95.9199 156.96 93.968 156.96 91.56C156.96 89.152 158.912 87.2 161.32 87.2Z" fill="#0F0F0F"/>
<path d="M187.481 87.2C189.889 87.2 191.841 89.152 191.841 91.56C191.841 93.968 189.889 95.9199 187.481 95.9199C185.073 95.9199 183.121 93.968 183.121 91.56C183.121 89.152 185.073 87.2 187.481 87.2Z" fill="#0F0F0F"/>
<path d="M196.2 87.2C198.608 87.2 200.56 89.152 200.56 91.56C200.56 93.968 198.608 95.9199 196.2 95.9199C193.792 95.9199 191.84 93.968 191.84 91.56C191.84 89.152 193.792 87.2 196.2 87.2Z" fill="#0F0F0F"/>
<path d="M213.64 87.2C216.048 87.2 218 89.152 218 91.56C218 93.968 216.048 95.9199 213.64 95.9199C211.232 95.9199 209.28 93.968 209.28 91.56C209.28 89.152 211.232 87.2 213.64 87.2Z" fill="#0F0F0F"/>
<path d="M21.7999 95.9199C24.208 95.9199 26.16 97.872 26.16 100.28C26.16 102.688 24.208 104.64 21.7999 104.64C19.392 104.64 17.4399 102.688 17.4399 100.28C17.4399 97.872 19.392 95.9199 21.7999 95.9199Z" fill="#0F0F0F"/>
<path d="M47.9601 95.9199C50.3682 95.9199 52.3201 97.872 52.3201 100.28C52.3201 102.688 50.3682 104.64 47.9601 104.64C45.5522 104.64 43.6001 102.688 43.6001 100.28C43.6001 97.872 45.5522 95.9199 47.9601 95.9199Z" fill="#0F0F0F"/>
<path d="M74.1198 95.9199C76.5278 95.9199 78.4798 97.872 78.4798 100.28C78.4798 102.688 76.5278 104.64 74.1198 104.64C71.7118 104.64 69.7598 102.688 69.7598 100.28C69.7598 97.872 71.7118 95.9199 74.1198 95.9199Z" fill="#0F0F0F"/>
<path d="M91.5602 95.9199C93.9683 95.9199 95.9202 97.872 95.9202 100.28C95.9202 102.688 93.9683 104.64 91.5602 104.64C89.1523 104.64 87.2002 102.688 87.2002 100.28C87.2002 97.872 89.1523 95.9199 91.5602 95.9199Z" fill="#0F0F0F"/>
<path d="M126.44 95.9199C128.848 95.9199 130.8 97.872 130.8 100.28C130.8 102.688 128.848 104.64 126.44 104.64C124.032 104.64 122.08 102.688 122.08 100.28C122.08 97.872 124.032 95.9199 126.44 95.9199Z" fill="#0F0F0F"/>
<path d="M135.16 95.9199C137.568 95.9199 139.52 97.872 139.52 100.28C139.52 102.688 137.568 104.64 135.16 104.64C132.752 104.64 130.8 102.688 130.8 100.28C130.8 97.872 132.752 95.9199 135.16 95.9199Z" fill="#0F0F0F"/>
<path d="M143.881 95.9199C146.289 95.9199 148.241 97.872 148.241 100.28C148.241 102.688 146.289 104.64 143.881 104.64C141.473 104.64 139.521 102.688 139.521 100.28C139.521 97.872 141.473 95.9199 143.881 95.9199Z" fill="#0F0F0F"/>
<path d="M187.481 95.9199C189.889 95.9199 191.841 97.872 191.841 100.28C191.841 102.688 189.889 104.64 187.481 104.64C185.073 104.64 183.121 102.688 183.121 100.28C183.121 97.872 185.073 95.9199 187.481 95.9199Z" fill="#0F0F0F"/>
<path d="M13.0802 104.64C15.4883 104.64 17.4402 106.592 17.4402 109C17.4402 111.408 15.4883 113.36 13.0802 113.36C10.6723 113.36 8.72021 111.408 8.72021 109C8.72021 106.592 10.6723 104.64 13.0802 104.64Z" fill="#0F0F0F"/>
<path d="M21.7999 104.64C24.208 104.64 26.16 106.592 26.16 109C26.16 111.408 24.208 113.36 21.7999 113.36C19.392 113.36 17.4399 111.408 17.4399 109C17.4399 106.592 19.392 104.64 21.7999 104.64Z" fill="#0F0F0F"/>
<path d="M30.5202 104.64C32.9282 104.64 34.8802 106.592 34.8802 109C34.8802 111.408 32.9282 113.36 30.5202 113.36C28.1122 113.36 26.1602 111.408 26.1602 109C26.1602 106.592 28.1122 104.64 30.5202 104.64Z" fill="#0F0F0F"/>
<path d="M39.2399 104.64C41.648 104.64 43.5999 106.592 43.5999 109C43.5999 111.408 41.648 113.36 39.2399 113.36C36.8319 113.36 34.8799 111.408 34.8799 109C34.8799 106.592 36.8319 104.64 39.2399 104.64Z" fill="#0F0F0F"/>
<path d="M56.6803 104.64C59.0884 104.64 61.0403 106.592 61.0403 109C61.0403 111.408 59.0884 113.36 56.6803 113.36C54.2724 113.36 52.3203 111.408 52.3203 109C52.3203 106.592 54.2724 104.64 56.6803 104.64Z" fill="#0F0F0F"/>
<path d="M74.1198 104.64C76.5278 104.64 78.4798 106.592 78.4798 109C78.4798 111.408 76.5278 113.36 74.1198 113.36C71.7118 113.36 69.7598 111.408 69.7598 109C69.7598 106.592 71.7118 104.64 74.1198 104.64Z" fill="#0F0F0F"/>
<path d="M82.84 104.64C85.2481 104.64 87.2 106.592 87.2 109C87.2 111.408 85.2481 113.36 82.84 113.36C80.432 113.36 78.48 111.408 78.48 109C78.48 106.592 80.432 104.64 82.84 104.64Z" fill="#0F0F0F"/>
<path d="M91.5602 104.64C93.9683 104.64 95.9202 106.592 95.9202 109C95.9202 111.408 93.9683 113.36 91.5602 113.36C89.1523 113.36 87.2002 111.408 87.2002 109C87.2002 106.592 89.1523 104.64 91.5602 104.64Z" fill="#0F0F0F"/>
<path d="M100.28 104.64C102.688 104.64 104.64 106.592 104.64 109C104.64 111.408 102.688 113.36 100.28 113.36C97.8725 113.36 95.9204 111.408 95.9204 109C95.9204 106.592 97.8725 104.64 100.28 104.64Z" fill="#0F0F0F"/>
<path d="M109 104.64C111.408 104.64 113.36 106.592 113.36 109C113.36 111.408 111.408 113.36 109 113.36C106.592 113.36 104.64 111.408 104.64 109C104.64 106.592 106.592 104.64 109 104.64Z" fill="#0F0F0F"/>
<path d="M143.881 104.64C146.289 104.64 148.241 106.592 148.241 109C148.241 111.408 146.289 113.36 143.881 113.36C141.473 113.36 139.521 111.408 139.521 109C139.521 106.592 141.473 104.64 143.881 104.64Z" fill="#0F0F0F"/>
<path d="M161.32 104.64C163.728 104.64 165.68 106.592 165.68 109C165.68 111.408 163.728 113.36 161.32 113.36C158.912 113.36 156.96 111.408 156.96 109C156.96 106.592 158.912 104.64 161.32 104.64Z" fill="#0F0F0F"/>
<path d="M213.64 104.64C216.048 104.64 218 106.592 218 109C218 111.408 216.048 113.36 213.64 113.36C211.232 113.36 209.28 111.408 209.28 109C209.28 106.592 211.232 104.64 213.64 104.64Z" fill="#0F0F0F"/>
<path d="M13.0802 113.36C15.4883 113.36 17.4402 115.312 17.4402 117.72C17.4402 120.128 15.4883 122.08 13.0802 122.08C10.6723 122.08 8.72021 120.128 8.72021 117.72C8.72021 115.312 10.6723 113.36 13.0802 113.36Z" fill="#0F0F0F"/>
<path d="M21.7999 113.36C24.208 113.36 26.16 115.312 26.16 117.72C26.16 120.128 24.208 122.08 21.7999 122.08C19.392 122.08 17.4399 120.128 17.4399 117.72C17.4399 115.312 19.392 113.36 21.7999 113.36Z" fill="#0F0F0F"/>
<path d="M39.2399 113.36C41.648 113.36 43.5999 115.312 43.5999 117.72C43.5999 120.128 41.648 122.08 39.2399 122.08C36.8319 122.08 34.8799 120.128 34.8799 117.72C34.8799 115.312 36.8319 113.36 39.2399 113.36Z" fill="#0F0F0F"/>
<path d="M47.9601 113.36C50.3682 113.36 52.3201 115.312 52.3201 117.72C52.3201 120.128 50.3682 122.08 47.9601 122.08C45.5522 122.08 43.6001 120.128 43.6001 117.72C43.6001 115.312 45.5522 113.36 47.9601 113.36Z" fill="#0F0F0F"/>
<path d="M65.4 113.36C67.8081 113.36 69.7601 115.312 69.7601 117.72C69.7601 120.128 67.8081 122.08 65.4 122.08C62.9921 122.08 61.04 120.128 61.04 117.72C61.04 115.312 62.9921 113.36 65.4 113.36Z" fill="#0F0F0F"/>
<path d="M74.1198 113.36C76.5278 113.36 78.4798 115.312 78.4798 117.72C78.4798 120.128 76.5278 122.08 74.1198 122.08C71.7118 122.08 69.7598 120.128 69.7598 117.72C69.7598 115.312 71.7118 113.36 74.1198 113.36Z" fill="#0F0F0F"/>
<path d="M109 113.36C111.408 113.36 113.36 115.312 113.36 117.72C113.36 120.128 111.408 122.08 109 122.08C106.592 122.08 104.64 120.128 104.64 117.72C104.64 115.312 106.592 113.36 109 113.36Z" fill="#0F0F0F"/>
<path d="M135.16 113.36C137.568 113.36 139.52 115.312 139.52 117.72C139.52 120.128 137.568 122.08 135.16 122.08C132.752 122.08 130.8 120.128 130.8 117.72C130.8 115.312 132.752 113.36 135.16 113.36Z" fill="#0F0F0F"/>
<path d="M161.32 113.36C163.728 113.36 165.68 115.312 165.68 117.72C165.68 120.128 163.728 122.08 161.32 122.08C158.912 122.08 156.96 120.128 156.96 117.72C156.96 115.312 158.912 113.36 161.32 113.36Z" fill="#0F0F0F"/>
<path d="M170.04 113.36C172.448 113.36 174.4 115.312 174.4 117.72C174.4 120.128 172.448 122.08 170.04 122.08C167.632 122.08 165.68 120.128 165.68 117.72C165.68 115.312 167.632 113.36 170.04 113.36Z" fill="#0F0F0F"/>
<path d="M204.92 113.36C207.328 113.36 209.28 115.312 209.28 117.72C209.28 120.128 207.328 122.08 204.92 122.08C202.512 122.08 200.56 120.128 200.56 117.72C200.56 115.312 202.512 113.36 204.92 113.36Z" fill="#0F0F0F"/>
<path d="M213.64 113.36C216.048 113.36 218 115.312 218 117.72C218 120.128 216.048 122.08 213.64 122.08C211.232 122.08 209.28 120.128 209.28 117.72C209.28 115.312 211.232 113.36 213.64 113.36Z" fill="#0F0F0F"/>
<path d="M4.36001 122.08C6.76807 122.08 8.72001 124.032 8.72001 126.44C8.72001 128.848 6.76807 130.8 4.36001 130.8C1.95206 130.8 0 128.848 0 126.44C0 124.032 1.95206 122.08 4.36001 122.08Z" fill="#0F0F0F"/>
<path d="M13.0802 122.08C15.4883 122.08 17.4402 124.032 17.4402 126.44C17.4402 128.848 15.4883 130.8 13.0802 130.8C10.6723 130.8 8.72021 128.848 8.72021 126.44C8.72021 124.032 10.6723 122.08 13.0802 122.08Z" fill="#0F0F0F"/>
<path d="M21.7999 122.08C24.208 122.08 26.16 124.032 26.16 126.44C26.16 128.848 24.208 130.8 21.7999 130.8C19.392 130.8 17.4399 128.848 17.4399 126.44C17.4399 124.032 19.392 122.08 21.7999 122.08Z" fill="#0F0F0F"/>
<path d="M56.6803 122.08C59.0884 122.08 61.0403 124.032 61.0403 126.44C61.0403 128.848 59.0884 130.8 56.6803 130.8C54.2724 130.8 52.3203 128.848 52.3203 126.44C52.3203 124.032 54.2724 122.08 56.6803 122.08Z" fill="#0F0F0F"/>
<path d="M74.1198 122.08C76.5278 122.08 78.4798 124.032 78.4798 126.44C78.4798 128.848 76.5278 130.8 74.1198 130.8C71.7118 130.8 69.7598 128.848 69.7598 126.44C69.7598 124.032 71.7118 122.08 74.1198 122.08Z" fill="#0F0F0F"/>
<path d="M109 122.08C111.408 122.08 113.36 124.032 113.36 126.44C113.36 128.848 111.408 130.8 109 130.8C106.592 130.8 104.64 128.848 104.64 126.44C104.64 124.032 106.592 122.08 109 122.08Z" fill="#0F0F0F"/>
<path d="M117.72 122.08C120.128 122.08 122.08 124.032 122.08 126.44C122.08 128.848 120.128 130.8 117.72 130.8C115.312 130.8 113.36 128.848 113.36 126.44C113.36 124.032 115.312 122.08 117.72 122.08Z" fill="#0F0F0F"/>
<path d="M126.44 122.08C128.848 122.08 130.8 124.032 130.8 126.44C130.8 128.848 128.848 130.8 126.44 130.8C124.032 130.8 122.08 128.848 122.08 126.44C122.08 124.032 124.032 122.08 126.44 122.08Z" fill="#0F0F0F"/>
<path d="M135.16 122.08C137.568 122.08 139.52 124.032 139.52 126.44C139.52 128.848 137.568 130.8 135.16 130.8C132.752 130.8 130.8 128.848 130.8 126.44C130.8 124.032 132.752 122.08 135.16 122.08Z" fill="#0F0F0F"/>
<path d="M161.32 122.08C163.728 122.08 165.68 124.032 165.68 126.44C165.68 128.848 163.728 130.8 161.32 130.8C158.912 130.8 156.96 128.848 156.96 126.44C156.96 124.032 158.912 122.08 161.32 122.08Z" fill="#0F0F0F"/>
<path d="M187.481 122.08C189.889 122.08 191.841 124.032 191.841 126.44C191.841 128.848 189.889 130.8 187.481 130.8C185.073 130.8 183.121 128.848 183.121 126.44C183.121 124.032 185.073 122.08 187.481 122.08Z" fill="#0F0F0F"/>
<path d="M196.2 122.08C198.608 122.08 200.56 124.032 200.56 126.44C200.56 128.848 198.608 130.8 196.2 130.8C193.792 130.8 191.84 128.848 191.84 126.44C191.84 124.032 193.792 122.08 196.2 122.08Z" fill="#0F0F0F"/>
<path d="M213.64 122.08C216.048 122.08 218 124.032 218 126.44C218 128.848 216.048 130.8 213.64 130.8C211.232 130.8 209.28 128.848 209.28 126.44C209.28 124.032 211.232 122.08 213.64 122.08Z" fill="#0F0F0F"/>
<path d="M21.7999 130.8C24.208 130.8 26.16 132.752 26.16 135.16C26.16 137.568 24.208 139.52 21.7999 139.52C19.392 139.52 17.4399 137.568 17.4399 135.16C17.4399 132.752 19.392 130.8 21.7999 130.8Z" fill="#0F0F0F"/>
<path d="M74.1198 130.8C76.5278 130.8 78.4798 132.752 78.4798 135.16C78.4798 137.568 76.5278 139.52 74.1198 139.52C71.7118 139.52 69.7598 137.568 69.7598 135.16C69.7598 132.752 71.7118 130.8 74.1198 130.8Z" fill="#0F0F0F"/>
<path d="M100.28 130.8C102.688 130.8 104.64 132.752 104.64 135.16C104.64 137.568 102.688 139.52 100.28 139.52C97.8725 139.52 95.9204 137.568 95.9204 135.16C95.9204 132.752 97.8725 130.8 100.28 130.8Z" fill="#0F0F0F"/>
<path d="M109 130.8C111.408 130.8 113.36 132.752 113.36 135.16C113.36 137.568 111.408 139.52 109 139.52C106.592 139.52 104.64 137.568 104.64 135.16C104.64 132.752 106.592 130.8 109 130.8Z" fill="#0F0F0F"/>
<path d="M126.44 130.8C128.848 130.8 130.8 132.752 130.8 135.16C130.8 137.568 128.848 139.52 126.44 139.52C124.032 139.52 122.08 137.568 122.08 135.16C122.08 132.752 124.032 130.8 126.44 130.8Z" fill="#0F0F0F"/>
<path d="M152.6 130.8C155.008 130.8 156.96 132.752 156.96 135.16C156.96 137.568 155.008 139.52 152.6 139.52C150.192 139.52 148.24 137.568 148.24 135.16C148.24 132.752 150.192 130.8 152.6 130.8Z" fill="#0F0F0F"/>
<path d="M170.04 130.8C172.448 130.8 174.4 132.752 174.4 135.16C174.4 137.568 172.448 139.52 170.04 139.52C167.632 139.52 165.68 137.568 165.68 135.16C165.68 132.752 167.632 130.8 170.04 130.8Z" fill="#0F0F0F"/>
<path d="M178.76 130.8C181.168 130.8 183.12 132.752 183.12 135.16C183.12 137.568 181.168 139.52 178.76 139.52C176.352 139.52 174.4 137.568 174.4 135.16C174.4 132.752 176.352 130.8 178.76 130.8Z" fill="#0F0F0F"/>
<path d="M187.481 130.8C189.889 130.8 191.841 132.752 191.841 135.16C191.841 137.568 189.889 139.52 187.481 139.52C185.073 139.52 183.121 137.568 183.121 135.16C183.121 132.752 185.073 130.8 187.481 130.8Z" fill="#0F0F0F"/>
<path d="M4.36001 139.52C6.76807 139.52 8.72001 141.472 8.72001 143.88C8.72001 146.288 6.76807 148.24 4.36001 148.24C1.95206 148.24 0 146.288 0 143.88C0 141.472 1.95206 139.52 4.36001 139.52Z" fill="#0F0F0F"/>
<path d="M13.0802 139.52C15.4883 139.52 17.4402 141.472 17.4402 143.88C17.4402 146.288 15.4883 148.24 13.0802 148.24C10.6723 148.24 8.72021 146.288 8.72021 143.88C8.72021 141.472 10.6723 139.52 13.0802 139.52Z" fill="#0F0F0F"/>
<path d="M21.7999 139.52C24.208 139.52 26.16 141.472 26.16 143.88C26.16 146.288 24.208 148.24 21.7999 148.24C19.392 148.24 17.4399 146.288 17.4399 143.88C17.4399 141.472 19.392 139.52 21.7999 139.52Z" fill="#0F0F0F"/>
<path d="M39.2399 139.52C41.648 139.52 43.5999 141.472 43.5999 143.88C43.5999 146.288 41.648 148.24 39.2399 148.24C36.8319 148.24 34.8799 146.288 34.8799 143.88C34.8799 141.472 36.8319 139.52 39.2399 139.52Z" fill="#0F0F0F"/>
<path d="M56.6803 139.52C59.0884 139.52 61.0403 141.472 61.0403 143.88C61.0403 146.288 59.0884 148.24 56.6803 148.24C54.2724 148.24 52.3203 146.288 52.3203 143.88C52.3203 141.472 54.2724 139.52 56.6803 139.52Z" fill="#0F0F0F"/>
<path d="M82.84 139.52C85.2481 139.52 87.2 141.472 87.2 143.88C87.2 146.288 85.2481 148.24 82.84 148.24C80.432 148.24 78.48 146.288 78.48 143.88C78.48 141.472 80.432 139.52 82.84 139.52Z" fill="#0F0F0F"/>
<path d="M135.16 139.52C137.568 139.52 139.52 141.472 139.52 143.88C139.52 146.288 137.568 148.24 135.16 148.24C132.752 148.24 130.8 146.288 130.8 143.88C130.8 141.472 132.752 139.52 135.16 139.52Z" fill="#0F0F0F"/>
<path d="M143.881 139.52C146.289 139.52 148.241 141.472 148.241 143.88C148.241 146.288 146.289 148.24 143.881 148.24C141.473 148.24 139.521 146.288 139.521 143.88C139.521 141.472 141.473 139.52 143.881 139.52Z" fill="#0F0F0F"/>
<path d="M152.6 139.52C155.008 139.52 156.96 141.472 156.96 143.88C156.96 146.288 155.008 148.24 152.6 148.24C150.192 148.24 148.24 146.288 148.24 143.88C148.24 141.472 150.192 139.52 152.6 139.52Z" fill="#0F0F0F"/>
<path d="M161.32 139.52C163.728 139.52 165.68 141.472 165.68 143.88C165.68 146.288 163.728 148.24 161.32 148.24C158.912 148.24 156.96 146.288 156.96 143.88C156.96 141.472 158.912 139.52 161.32 139.52Z" fill="#0F0F0F"/>
<path d="M170.04 139.52C172.448 139.52 174.4 141.472 174.4 143.88C174.4 146.288 172.448 148.24 170.04 148.24C167.632 148.24 165.68 146.288 165.68 143.88C165.68 141.472 167.632 139.52 170.04 139.52Z" fill="#0F0F0F"/>
<path d="M178.76 139.52C181.168 139.52 183.12 141.472 183.12 143.88C183.12 146.288 181.168 148.24 178.76 148.24C176.352 148.24 174.4 146.288 174.4 143.88C174.4 141.472 176.352 139.52 178.76 139.52Z" fill="#0F0F0F"/>
<path d="M204.92 139.52C207.328 139.52 209.28 141.472 209.28 143.88C209.28 146.288 207.328 148.24 204.92 148.24C202.512 148.24 200.56 146.288 200.56 143.88C200.56 141.472 202.512 139.52 204.92 139.52Z" fill="#0F0F0F"/>
<path d="M74.1198 148.24C76.5278 148.24 78.4798 150.192 78.4798 152.6C78.4798 155.008 76.5278 156.96 74.1198 156.96C71.7118 156.96 69.7598 155.008 69.7598 152.6C69.7598 150.192 71.7118 148.24 74.1198 148.24Z" fill="#0F0F0F"/>
<path d="M91.5602 148.24C93.9683 148.24 95.9202 150.192 95.9202 152.6C95.9202 155.008 93.9683 156.96 91.5602 156.96C89.1523 156.96 87.2002 155.008 87.2002 152.6C87.2002 150.192 89.1523 148.24 91.5602 148.24Z" fill="#0F0F0F"/>
<path d="M126.44 148.24C128.848 148.24 130.8 150.192 130.8 152.6C130.8 155.008 128.848 156.96 126.44 156.96C124.032 156.96 122.08 155.008 122.08 152.6C122.08 150.192 124.032 148.24 126.44 148.24Z" fill="#0F0F0F"/>
<path d="M143.881 148.24C146.289 148.24 148.241 150.192 148.241 152.6C148.241 155.008 146.289 156.96 143.881 156.96C141.473 156.96 139.521 155.008 139.521 152.6C139.521 150.192 141.473 148.24 143.881 148.24Z" fill="#0F0F0F"/>
<path d="M178.76 148.24C181.168 148.24 183.12 150.192 183.12 152.6C183.12 155.008 181.168 156.96 178.76 156.96C176.352 156.96 174.4 155.008 174.4 152.6C174.4 150.192 176.352 148.24 178.76 148.24Z" fill="#0F0F0F"/>
<path d="M213.64 148.24C216.048 148.24 218 150.192 218 152.6C218 155.008 216.048 156.96 213.64 156.96C211.232 156.96 209.28 155.008 209.28 152.6C209.28 150.192 211.232 148.24 213.64 148.24Z" fill="#0F0F0F"/>
<path d="M74.1198 156.96C76.5278 156.96 78.4798 158.912 78.4798 161.32C78.4798 163.728 76.5278 165.68 74.1198 165.68C71.7118 165.68 69.7598 163.728 69.7598 161.32C69.7598 158.912 71.7118 156.96 74.1198 156.96Z" fill="#0F0F0F"/>
<path d="M91.5602 156.96C93.9683 156.96 95.9202 158.912 95.9202 161.32C95.9202 163.728 93.9683 165.68 91.5602 165.68C89.1523 165.68 87.2002 163.728 87.2002 161.32C87.2002 158.912 89.1523 156.96 91.5602 156.96Z" fill="#0F0F0F"/>
<path d="M100.28 156.96C102.688 156.96 104.64 158.912 104.64 161.32C104.64 163.728 102.688 165.68 100.28 165.68C97.8725 165.68 95.9204 163.728 95.9204 161.32C95.9204 158.912 97.8725 156.96 100.28 156.96Z" fill="#0F0F0F"/>
<path d="M117.72 156.96C120.128 156.96 122.08 158.912 122.08 161.32C122.08 163.728 120.128 165.68 117.72 165.68C115.312 165.68 113.36 163.728 113.36 161.32C113.36 158.912 115.312 156.96 117.72 156.96Z" fill="#0F0F0F"/>
<path d="M126.44 156.96C128.848 156.96 130.8 158.912 130.8 161.32C130.8 163.728 128.848 165.68 126.44 165.68C124.032 165.68 122.08 163.728 122.08 161.32C122.08 158.912 124.032 156.96 126.44 156.96Z" fill="#0F0F0F"/>
<path d="M143.881 156.96C146.289 156.96 148.241 158.912 148.241 161.32C148.241 163.728 146.289 165.68 143.881 165.68C141.473 165.68 139.521 163.728 139.521 161.32C139.521 158.912 141.473 156.96 143.881 156.96Z" fill="#0F0F0F"/>
<path d="M161.32 156.96C163.728 156.96 165.68 158.912 165.68 161.32C165.68 163.728 163.728 165.68 161.32 165.68C158.912 165.68 156.96 163.728 156.96 161.32C156.96 158.912 158.912 156.96 161.32 156.96Z" fill="#0F0F0F"/>
<path d="M178.76 156.96C181.168 156.96 183.12 158.912 183.12 161.32C183.12 163.728 181.168 165.68 178.76 165.68C176.352 165.68 174.4 163.728 174.4 161.32C174.4 158.912 176.352 156.96 178.76 156.96Z" fill="#0F0F0F"/>
<path d="M213.64 156.96C216.048 156.96 218 158.912 218 161.32C218 163.728 216.048 165.68 213.64 165.68C211.232 165.68 209.28 163.728 209.28 161.32C209.28 158.912 211.232 156.96 213.64 156.96Z" fill="#0F0F0F"/>
<path d="M135.16 165.68C137.568 165.68 139.52 167.632 139.52 170.04C139.52 172.448 137.568 174.4 135.16 174.4C132.752 174.4 130.8 172.448 130.8 170.04C130.8 167.632 132.752 165.68 135.16 165.68Z" fill="#0F0F0F"/>
<path d="M143.881 165.68C146.289 165.68 148.241 167.632 148.241 170.04C148.241 172.448 146.289 174.4 143.881 174.4C141.473 174.4 139.521 172.448 139.521 170.04C139.521 167.632 141.473 165.68 143.881 165.68Z" fill="#0F0F0F"/>
<path d="M178.76 165.68C181.168 165.68 183.12 167.632 183.12 170.04C183.12 172.448 181.168 174.4 178.76 174.4C176.352 174.4 174.4 172.448 174.4 170.04C174.4 167.632 176.352 165.68 178.76 165.68Z" fill="#0F0F0F"/>
<path d="M204.92 165.68C207.328 165.68 209.28 167.632 209.28 170.04C209.28 172.448 207.328 174.4 204.92 174.4C202.512 174.4 200.56 172.448 200.56 170.04C200.56 167.632 202.512 165.68 204.92 165.68Z" fill="#0F0F0F"/>
<path d="M213.64 165.68C216.048 165.68 218 167.632 218 170.04C218 172.448 216.048 174.4 213.64 174.4C211.232 174.4 209.28 172.448 209.28 170.04C209.28 167.632 211.232 165.68 213.64 165.68Z" fill="#0F0F0F"/>
<path d="M91.5602 174.4C93.9683 174.4 95.9202 176.352 95.9202 178.76C95.9202 181.168 93.9683 183.12 91.5602 183.12C89.1523 183.12 87.2002 181.168 87.2002 178.76C87.2002 176.352 89.1523 174.4 91.5602 174.4Z" fill="#0F0F0F"/>
<path d="M100.28 174.4C102.688 174.4 104.64 176.352 104.64 178.76C104.64 181.168 102.688 183.12 100.28 183.12C97.8725 183.12 95.9204 181.168 95.9204 178.76C95.9204 176.352 97.8725 174.4 100.28 174.4Z" fill="#0F0F0F"/>
<path d="M109 174.4C111.408 174.4 113.36 176.352 113.36 178.76C113.36 181.168 111.408 183.12 109 183.12C106.592 183.12 104.64 181.168 104.64 178.76C104.64 176.352 106.592 174.4 109 174.4Z" fill="#0F0F0F"/>
<path d="M126.44 174.4C128.848 174.4 130.8 176.352 130.8 178.76C130.8 181.168 128.848 183.12 126.44 183.12C124.032 183.12 122.08 181.168 122.08 178.76C122.08 176.352 124.032 174.4 126.44 174.4Z" fill="#0F0F0F"/>
<path d="M135.16 174.4C137.568 174.4 139.52 176.352 139.52 178.76C139.52 181.168 137.568 183.12 135.16 183.12C132.752 183.12 130.8 181.168 130.8 178.76C130.8 176.352 132.752 174.4 135.16 174.4Z" fill="#0F0F0F"/>
<path d="M143.881 174.4C146.289 174.4 148.241 176.352 148.241 178.76C148.241 181.168 146.289 183.12 143.881 183.12C141.473 183.12 139.521 181.168 139.521 178.76C139.521 176.352 141.473 174.4 143.881 174.4Z" fill="#0F0F0F"/>
<path d="M152.6 174.4C155.008 174.4 156.96 176.352 156.96 178.76C156.96 181.168 155.008 183.12 152.6 183.12C150.192 183.12 148.24 181.168 148.24 178.76C148.24 176.352 150.192 174.4 152.6 174.4Z" fill="#0F0F0F"/>
<path d="M161.32 174.4C163.728 174.4 165.68 176.352 165.68 178.76C165.68 181.168 163.728 183.12 161.32 183.12C158.912 183.12 156.96 181.168 156.96 178.76C156.96 176.352 158.912 174.4 161.32 174.4Z" fill="#0F0F0F"/>
<path d="M170.04 174.4C172.448 174.4 174.4 176.352 174.4 178.76C174.4 181.168 172.448 183.12 170.04 183.12C167.632 183.12 165.68 181.168 165.68 178.76C165.68 176.352 167.632 174.4 170.04 174.4Z" fill="#0F0F0F"/>
<path d="M178.76 174.4C181.168 174.4 183.12 176.352 183.12 178.76C183.12 181.168 181.168 183.12 178.76 183.12C176.352 183.12 174.4 181.168 174.4 178.76C174.4 176.352 176.352 174.4 178.76 174.4Z" fill="#0F0F0F"/>
<path d="M213.64 174.4C216.048 174.4 218 176.352 218 178.76C218 181.168 216.048 183.12 213.64 183.12C211.232 183.12 209.28 181.168 209.28 178.76C209.28 176.352 211.232 174.4 213.64 174.4Z" fill="#0F0F0F"/>
<path d="M109 183.12C111.408 183.12 113.36 185.072 113.36 187.48C113.36 189.888 111.408 191.84 109 191.84C106.592 191.84 104.64 189.888 104.64 187.48C104.64 185.072 106.592 183.12 109 183.12Z" fill="#0F0F0F"/>
<path d="M117.72 183.12C120.128 183.12 122.08 185.072 122.08 187.48C122.08 189.888 120.128 191.84 117.72 191.84C115.312 191.84 113.36 189.888 113.36 187.48C113.36 185.072 115.312 183.12 117.72 183.12Z" fill="#0F0F0F"/>
<path d="M152.6 183.12C155.008 183.12 156.96 185.072 156.96 187.48C156.96 189.888 155.008 191.84 152.6 191.84C150.192 191.84 148.24 189.888 148.24 187.48C148.24 185.072 150.192 183.12 152.6 183.12Z" fill="#0F0F0F"/>
<path d="M178.76 183.12C181.168 183.12 183.12 185.072 183.12 187.48C183.12 189.888 181.168 191.84 178.76 191.84C176.352 191.84 174.4 189.888 174.4 187.48C174.4 185.072 176.352 183.12 178.76 183.12Z" fill="#0F0F0F"/>
<path d="M196.2 183.12C198.608 183.12 200.56 185.072 200.56 187.48C200.56 189.888 198.608 191.84 196.2 191.84C193.792 191.84 191.84 189.888 191.84 187.48C191.84 185.072 193.792 183.12 196.2 183.12Z" fill="#0F0F0F"/>
<path d="M204.92 183.12C207.328 183.12 209.28 185.072 209.28 187.48C209.28 189.888 207.328 191.84 204.92 191.84C202.512 191.84 200.56 189.888 200.56 187.48C200.56 185.072 202.512 183.12 204.92 183.12Z" fill="#0F0F0F"/>
<path d="M74.1198 191.84C76.5278 191.84 78.4798 193.792 78.4798 196.2C78.4798 198.608 76.5278 200.56 74.1198 200.56C71.7118 200.56 69.7598 198.608 69.7598 196.2C69.7598 193.792 71.7118 191.84 74.1198 191.84Z" fill="#0F0F0F"/>
<path d="M82.84 191.84C85.2481 191.84 87.2 193.792 87.2 196.2C87.2 198.608 85.2481 200.56 82.84 200.56C80.432 200.56 78.48 198.608 78.48 196.2C78.48 193.792 80.432 191.84 82.84 191.84Z" fill="#0F0F0F"/>
<path d="M109 191.84C111.408 191.84 113.36 193.792 113.36 196.2C113.36 198.608 111.408 200.56 109 200.56C106.592 200.56 104.64 198.608 104.64 196.2C104.64 193.792 106.592 191.84 109 191.84Z" fill="#0F0F0F"/>
<path d="M135.16 191.84C137.568 191.84 139.52 193.792 139.52 196.2C139.52 198.608 137.568 200.56 135.16 200.56C132.752 200.56 130.8 198.608 130.8 196.2C130.8 193.792 132.752 191.84 135.16 191.84Z" fill="#0F0F0F"/>
<path d="M170.04 191.84C172.448 191.84 174.4 193.792 174.4 196.2C174.4 198.608 172.448 200.56 170.04 200.56C167.632 200.56 165.68 198.608 165.68 196.2C165.68 193.792 167.632 191.84 170.04 191.84Z" fill="#0F0F0F"/>
<path d="M178.76 191.84C181.168 191.84 183.12 193.792 183.12 196.2C183.12 198.608 181.168 200.56 178.76 200.56C176.352 200.56 174.4 198.608 174.4 196.2C174.4 193.792 176.352 191.84 178.76 191.84Z" fill="#0F0F0F"/>
<path d="M187.481 191.84C189.889 191.84 191.841 193.792 191.841 196.2C191.841 198.608 189.889 200.56 187.481 200.56C185.073 200.56 183.121 198.608 183.121 196.2C183.121 193.792 185.073 191.84 187.481 191.84Z" fill="#0F0F0F"/>
<path d="M204.92 191.84C207.328 191.84 209.28 193.792 209.28 196.2C209.28 198.608 207.328 200.56 204.92 200.56C202.512 200.56 200.56 198.608 200.56 196.2C200.56 193.792 202.512 191.84 204.92 191.84Z" fill="#0F0F0F"/>
<path d="M213.64 191.84C216.048 191.84 218 193.792 218 196.2C218 198.608 216.048 200.56 213.64 200.56C211.232 200.56 209.28 198.608 209.28 196.2C209.28 193.792 211.232 191.84 213.64 191.84Z" fill="#0F0F0F"/>
<path d="M82.84 200.56C85.2481 200.56 87.2 202.512 87.2 204.92C87.2 207.328 85.2481 209.28 82.84 209.28C80.432 209.28 78.48 207.328 78.48 204.92C78.48 202.512 80.432 200.56 82.84 200.56Z" fill="#0F0F0F"/>
<path d="M91.5602 200.56C93.9683 200.56 95.9202 202.512 95.9202 204.92C95.9202 207.328 93.9683 209.28 91.5602 209.28C89.1523 209.28 87.2002 207.328 87.2002 204.92C87.2002 202.512 89.1523 200.56 91.5602 200.56Z" fill="#0F0F0F"/>
<path d="M100.28 200.56C102.688 200.56 104.64 202.512 104.64 204.92C104.64 207.328 102.688 209.28 100.28 209.28C97.8725 209.28 95.9204 207.328 95.9204 204.92C95.9204 202.512 97.8725 200.56 100.28 200.56Z" fill="#0F0F0F"/>
<path d="M109 200.56C111.408 200.56 113.36 202.512 113.36 204.92C113.36 207.328 111.408 209.28 109 209.28C106.592 209.28 104.64 207.328 104.64 204.92C104.64 202.512 106.592 200.56 109 200.56Z" fill="#0F0F0F"/>
<path d="M126.44 200.56C128.848 200.56 130.8 202.512 130.8 204.92C130.8 207.328 128.848 209.28 126.44 209.28C124.032 209.28 122.08 207.328 122.08 204.92C122.08 202.512 124.032 200.56 126.44 200.56Z" fill="#0F0F0F"/>
<path d="M143.881 200.56C146.289 200.56 148.241 202.512 148.241 204.92C148.241 207.328 146.289 209.28 143.881 209.28C141.473 209.28 139.521 207.328 139.521 204.92C139.521 202.512 141.473 200.56 143.881 200.56Z" fill="#0F0F0F"/>
<path d="M161.32 200.56C163.728 200.56 165.68 202.512 165.68 204.92C165.68 207.328 163.728 209.28 161.32 209.28C158.912 209.28 156.96 207.328 156.96 204.92C156.96 202.512 158.912 200.56 161.32 200.56Z" fill="#0F0F0F"/>
<path d="M170.04 200.56C172.448 200.56 174.4 202.512 174.4 204.92C174.4 207.328 172.448 209.28 170.04 209.28C167.632 209.28 165.68 207.328 165.68 204.92C165.68 202.512 167.632 200.56 170.04 200.56Z" fill="#0F0F0F"/>
<path d="M178.76 200.56C181.168 200.56 183.12 202.512 183.12 204.92C183.12 207.328 181.168 209.28 178.76 209.28C176.352 209.28 174.4 207.328 174.4 204.92C174.4 202.512 176.352 200.56 178.76 200.56Z" fill="#0F0F0F"/>
<path d="M74.1198 209.28C76.5278 209.28 78.4798 211.232 78.4798 213.64C78.4798 216.048 76.5278 218 74.1198 218C71.7118 218 69.7598 216.048 69.7598 213.64C69.7598 211.232 71.7118 209.28 74.1198 209.28Z" fill="#0F0F0F"/>
<path d="M82.84 209.28C85.2481 209.28 87.2 211.232 87.2 213.64C87.2 216.048 85.2481 218 82.84 218C80.432 218 78.48 216.048 78.48 213.64C78.48 211.232 80.432 209.28 82.84 209.28Z" fill="#0F0F0F"/>
<path d="M109 209.28C111.408 209.28 113.36 211.232 113.36 213.64C113.36 216.048 111.408 218 109 218C106.592 218 104.64 216.048 104.64 213.64C104.64 211.232 106.592 209.28 109 209.28Z" fill="#0F0F0F"/>
<path d="M117.72 209.28C120.128 209.28 122.08 211.232 122.08 213.64C122.08 216.048 120.128 218 117.72 218C115.312 218 113.36 216.048 113.36 213.64C113.36 211.232 115.312 209.28 117.72 209.28Z" fill="#0F0F0F"/>
<path d="M126.44 209.28C128.848 209.28 130.8 211.232 130.8 213.64C130.8 216.048 128.848 218 126.44 218C124.032 218 122.08 216.048 122.08 213.64C122.08 211.232 124.032 209.28 126.44 209.28Z" fill="#0F0F0F"/>
<path d="M143.881 209.28C146.289 209.28 148.241 211.232 148.241 213.64C148.241 216.048 146.289 218 143.881 218C141.473 218 139.521 216.048 139.521 213.64C139.521 211.232 141.473 209.28 143.881 209.28Z" fill="#0F0F0F"/>
<path d="M152.6 209.28C155.008 209.28 156.96 211.232 156.96 213.64C156.96 216.048 155.008 218 152.6 218C150.192 218 148.24 216.048 148.24 213.64C148.24 211.232 150.192 209.28 152.6 209.28Z" fill="#0F0F0F"/>
<path d="M187.481 209.28C189.889 209.28 191.841 211.232 191.841 213.64C191.841 216.048 189.889 218 187.481 218C185.073 218 183.121 216.048 183.121 213.64C183.121 211.232 185.073 209.28 187.481 209.28Z" fill="#0F0F0F"/>
<path d="M213.64 209.28C216.048 209.28 218 211.232 218 213.64C218 216.048 216.048 218 213.64 218C211.232 218 209.28 216.048 209.28 213.64C209.28 211.232 211.232 209.28 213.64 209.28Z" fill="#0F0F0F"/>
<path d="M30.5202 0.59845C13.9957 0.59845 0.598633 13.9955 0.598633 30.52C0.598633 47.0445 13.9957 60.4416 30.5202 60.4416C47.0447 60.4416 60.4418 47.0445 60.4418 30.52C60.4418 13.9955 47.0447 0.59845 30.5202 0.59845ZM30.5202 51.4651C18.9711 51.4651 9.57511 42.0691 9.57511 30.52C9.57511 18.9709 18.9711 9.57492 30.5202 9.57492C42.0694 9.57492 51.4654 18.9709 51.4654 30.52C51.4654 42.0691 42.0694 51.4651 30.5202 51.4651Z" fill="#0F0F0F"/>
<path d="M187.48 0.59845C170.955 0.59845 157.558 13.9955 157.558 30.52C157.558 47.0445 170.955 60.4416 187.48 60.4416C204.004 60.4416 217.401 47.0445 217.401 30.52C217.401 13.9955 204.004 0.59845 187.48 0.59845ZM187.48 51.4651C175.931 51.4651 166.535 42.0691 166.535 30.52C166.535 18.9709 175.931 9.57492 187.48 9.57492C199.029 9.57492 208.425 18.9709 208.425 30.52C208.425 42.0691 199.029 51.4651 187.48 51.4651Z" fill="#0F0F0F"/>
<path d="M30.5202 157.558C13.9957 157.558 0.598633 170.955 0.598633 187.48C0.598633 204.004 13.9957 217.401 30.5202 217.401C47.0447 217.401 60.4418 204.004 60.4418 187.48C60.4418 170.955 47.0447 157.558 30.5202 157.558ZM30.5202 208.425C18.9711 208.425 9.57511 199.029 9.57511 187.48C9.57511 175.931 18.9711 166.535 30.5202 166.535C42.0694 166.535 51.4654 175.931 51.4654 187.48C51.4654 199.029 42.0694 208.425 30.5202 208.425Z" fill="#0F0F0F"/>
<path d="M30.2635 43.0871C37.3457 43.0871 43.087 37.3458 43.087 30.2635C43.087 23.1813 37.3457 17.44 30.2635 17.44C23.1812 17.44 17.4399 23.1813 17.4399 30.2635C17.4399 37.3458 23.1812 43.0871 30.2635 43.0871Z" fill="#0F0F0F"/>
<path d="M187.224 43.0871C194.306 43.0871 200.047 37.3458 200.047 30.2635C200.047 23.1813 194.306 17.44 187.224 17.44C180.142 17.44 174.4 23.1813 174.4 30.2635C174.4 37.3458 180.142 43.0871 187.224 43.0871Z" fill="#0F0F0F"/>
<path d="M30.2635 200.047C37.3457 200.047 43.087 194.306 43.087 187.223C43.087 180.141 37.3457 174.4 30.2635 174.4C23.1812 174.4 17.4399 180.141 17.4399 187.223C17.4399 194.306 23.1812 200.047 30.2635 200.047Z" fill="#0F0F0F"/>
</svg>
