<svg width="18" height="18" viewBox="0 0 18 18" fill="none" xmlns="http://www.w3.org/2000/svg">
<path d="M4.5 6.75C5.325 6.75 6 7.425 6 8.25C6 9.075 5.325 9.75 4.5 9.75C3.675 9.75 3 9.075 3 8.25C3 7.425 3.675 6.75 4.5 6.75ZM9 6.75C9.825 6.75 10.5 7.425 10.5 8.25C10.5 9.075 9.825 9.75 9 9.75C8.175 9.75 7.5 9.075 7.5 8.25C7.5 7.425 8.175 6.75 9 6.75ZM13.5 6.75C14.325 6.75 15 7.425 15 8.25C15 9.075 14.325 9.75 13.5 9.75C12.675 9.75 12 9.075 12 8.25C12 7.425 12.675 6.75 13.5 6.75Z" fill="#424242"/>
</svg>
