<svg width="18" height="18" viewBox="0 0 18 18" fill="none" xmlns="http://www.w3.org/2000/svg">
<path d="M14.0171 3.99089C13.8683 3.84177 13.6663 3.75796 13.4556 3.75796C13.245 3.75796 13.043 3.84177 12.8942 3.99089L9 7.87712L5.1058 3.98292C4.95702 3.8338 4.75502 3.75 4.54437 3.75C4.33372 3.75 4.13172 3.8338 3.98294 3.98292C3.67235 4.2935 3.67235 4.79521 3.98294 5.10579L7.87713 8.99999L3.98294 12.8942C3.67235 13.2048 3.67235 13.7065 3.98294 14.0171C4.29352 14.3276 4.79522 14.3276 5.1058 14.0171L9 10.1229L12.8942 14.0171C13.2048 14.3276 13.7065 14.3276 14.0171 14.0171C14.3276 13.7065 14.3276 13.2048 14.0171 12.8942L10.1229 8.99999L14.0171 5.10579C14.3197 4.80317 14.3197 4.2935 14.0171 3.99089Z" fill="#BF360C"/>
</svg>
