<svg width="20" height="20" viewBox="0 0 20 20" fill="none" xmlns="http://www.w3.org/2000/svg">
<path d="M2.93848 8.99316C2.50514 5.46816 5.47207 2.50124 8.99707 2.93457C11.3304 3.21792 13.2636 5.06812 13.6553 7.38477C13.9386 9.07643 13.4219 10.6683 12.4219 11.835L12.6553 12.0596H13.3135L16.8467 15.6094C17.1883 15.951 17.1883 16.5099 16.8467 16.8516C16.505 17.193 15.9471 17.193 15.6055 16.8516L12.0635 13.3096V12.6514L11.8389 12.418C10.6722 13.418 9.08034 13.9347 7.38867 13.6514C5.07202 13.2597 3.22183 11.3265 2.93848 8.99316ZM8.31348 4.55957C6.23863 4.55968 4.56358 6.23473 4.56348 8.30957C4.56348 10.3845 6.23857 12.0595 8.31348 12.0596C10.3885 12.0596 12.0635 10.3846 12.0635 8.30957C12.0634 6.23466 10.3884 4.55957 8.31348 4.55957Z" fill="#929292"/>
</svg>
