<svg width="16" height="16" viewBox="0 0 16 16" fill="none" xmlns="http://www.w3.org/2000/svg">
<path d="M12 11.531C12.3664 11.5312 12.6658 11.8307 12.666 12.197C12.666 12.5636 12.3665 12.8638 12 12.864H4C3.63333 12.864 3.33301 12.5637 3.33301 12.197C3.33326 11.8306 3.63349 11.531 4 11.531H12ZM8.00293 1.80249C8.17927 1.80249 8.3481 1.87298 8.47266 1.9978L11.5332 5.05737C11.9531 5.47738 11.6529 6.19702 11.0596 6.19702H10V9.53101C9.9999 9.89758 9.69961 10.197 9.33301 10.197H6.66602C6.29956 10.1968 6.0001 9.89748 6 9.53101V6.19702H4.93945C4.34633 6.19684 4.05289 5.47734 4.47266 5.05737L7.5332 1.9978C7.65774 1.87299 7.82661 1.80251 8.00293 1.80249Z" fill="#4A90E2"/>
</svg>
